<svg xmlns="http://www.w3.org/2000/svg" xmlns:xlink="http://www.w3.org/1999/xlink" width="40" height="40" viewBox="0 0 40 40">
  <defs>
    <clipPath id="clip-path">
      <path id="path1516" d="M250.863-395.8a20,20,0,0,0,20,20h0a20,20,0,0,0,20-20h0a20,20,0,0,0-20-20h0a20,20,0,0,0-20,20" transform="translate(0 0)"/>
    </clipPath>
  </defs>
  <g id="g1514" transform="translate(-250.863 415.803)" clip-path="url(#clip-path)">
    <g id="g1520" transform="translate(255.365 -387.424)">
      <path id="path1522" d="M-108.126-123.207h-34.614c-.145-1.323,5.157-29.45,11.385-38.493.707-1.026,6.759-1.773,8.982.779,11.771,13.517,14.532,37.39,14.248,37.714" transform="translate(142.744 162.653)" fill="#004a4b"/>
    </g>
    <g id="g1524" transform="translate(265.657 -386.503)">
      <path id="path1526" d="M-3.626-1.636a1.312,1.312,0,0,1-1.161,1.3,20.672,20.672,0,0,1,1.1-1.795l.023-.032a3.54,3.54,0,0,1,.042.524" transform="translate(4.787 2.16)" fill="#d9cbff"/>
    </g>
    <g id="g1528" transform="translate(272.089 -387.295)">
      <path id="path1530" d="M-8.191-4.111A1.313,1.313,0,0,1-9.5-2.8a1.314,1.314,0,0,1-1.313-1.313,4.122,4.122,0,0,1,.233-1.316,6.914,6.914,0,0,1,2.341.753,3.278,3.278,0,0,1,.049.563" transform="translate(10.813 5.427)" fill="#d9cbff"/>
    </g>
    <g id="g1532" transform="translate(264.198 -374.928)">
      <path id="path1534" d="M-8.185-10.193A1.31,1.31,0,0,1-9.5-8.883a1.31,1.31,0,0,1-1.31-1.31A5.9,5.9,0,0,1-9.5-13.456a6.163,6.163,0,0,1,1.31,3.263" transform="translate(10.805 13.456)" fill="#d9cbff"/>
    </g>
    <g id="g1536" transform="translate(272.09 -374.928)">
      <path id="path1538" d="M-8.185-10.193A1.31,1.31,0,0,1-9.5-8.883a1.31,1.31,0,0,1-1.31-1.31A5.9,5.9,0,0,1-9.5-13.456a6.163,6.163,0,0,1,1.31,3.263" transform="translate(10.805 13.456)" fill="#d9cbff"/>
    </g>
    <g id="g1540" transform="translate(279.983 -374.928)">
      <path id="path1542" d="M-8.185-10.193A1.31,1.31,0,0,1-9.5-8.883a1.31,1.31,0,0,1-1.31-1.31A5.9,5.9,0,0,1-9.5-13.456a6.163,6.163,0,0,1,1.31,3.263" transform="translate(10.805 13.456)" fill="#d9cbff"/>
    </g>
    <g id="g1544" transform="translate(262.673 -378.306)">
      <path id="path1546" d="M-.576,0A1.173,1.173,0,0,1-.76.5C-.7.333-.637.165-.576,0" transform="translate(0.76)" fill="#d9cbff"/>
    </g>
    <g id="g1548" transform="translate(268.144 -381.76)">
      <path id="path1550" d="M-8.185-10.193A1.31,1.31,0,0,1-9.5-8.883a1.31,1.31,0,0,1-1.31-1.31A5.9,5.9,0,0,1-9.5-13.456a6.163,6.163,0,0,1,1.31,3.263" transform="translate(10.805 13.456)" fill="#d9cbff"/>
    </g>
    <g id="g1552" transform="translate(276.036 -381.76)">
      <path id="path1554" d="M-8.185-10.193A1.31,1.31,0,0,1-9.5-8.883a1.31,1.31,0,0,1-1.31-1.31A5.9,5.9,0,0,1-9.5-13.456a6.163,6.163,0,0,1,1.31,3.263" transform="translate(10.805 13.456)" fill="#d9cbff"/>
    </g>
    <g id="g1556" transform="translate(256.823 -360.451)">
      <path id="path1558" d="M-6.565-9.676a1.311,1.311,0,0,1-1.31,1.313,1.28,1.28,0,0,1-.792-.268c.272-1.293.579-2.687.915-4.142a5.877,5.877,0,0,1,1.187,3.1" transform="translate(8.667 12.773)" fill="#d9cbff"/>
    </g>
    <g id="g1560" transform="translate(264.198 -360.615)">
      <path id="path1562" d="M-8.185-10.193A1.31,1.31,0,0,1-9.5-8.883a1.31,1.31,0,0,1-1.31-1.31A5.9,5.9,0,0,1-9.5-13.456a6.163,6.163,0,0,1,1.31,3.263" transform="translate(10.805 13.456)" fill="#d9cbff"/>
    </g>
    <g id="g1564" transform="translate(272.09 -360.615)">
      <path id="path1566" d="M-8.185-10.193A1.31,1.31,0,0,1-9.5-8.883a1.31,1.31,0,0,1-1.31-1.31A5.9,5.9,0,0,1-9.5-13.456a6.163,6.163,0,0,1,1.31,3.263" transform="translate(10.805 13.456)" fill="#d9cbff"/>
    </g>
    <g id="g1568" transform="translate(279.983 -360.615)">
      <path id="path1570" d="M-8.185-10.193A1.31,1.31,0,0,1-9.5-8.883a1.31,1.31,0,0,1-1.31-1.31A5.9,5.9,0,0,1-9.5-13.456a6.163,6.163,0,0,1,1.31,3.263" transform="translate(10.805 13.456)" fill="#d9cbff"/>
    </g>
    <g id="g1572" transform="translate(287.875 -358.834)">
      <path id="path1574" d="M-2.838-8.524a1.309,1.309,0,0,1-.909-1.248,4.224,4.224,0,0,1,.294-1.481c.23.954.433,1.866.614,2.729" transform="translate(3.747 11.253)" fill="#d9cbff"/>
    </g>
    <g id="g1576" transform="translate(260.251 -367.447)">
      <path id="path1578" d="M-8.185-10.193A1.31,1.31,0,0,1-9.5-8.883a1.31,1.31,0,0,1-1.31-1.31A5.9,5.9,0,0,1-9.5-13.456a6.163,6.163,0,0,1,1.31,3.263" transform="translate(10.805 13.456)" fill="#d9cbff"/>
    </g>
    <g id="g1580" transform="translate(268.144 -367.447)">
      <path id="path1582" d="M-8.185-10.193A1.31,1.31,0,0,1-9.5-8.883a1.31,1.31,0,0,1-1.31-1.31A5.9,5.9,0,0,1-9.5-13.456a6.163,6.163,0,0,1,1.31,3.263" transform="translate(10.805 13.456)" fill="#d9cbff"/>
    </g>
    <g id="g1584" transform="translate(276.036 -367.447)">
      <path id="path1586" d="M-8.185-10.193A1.31,1.31,0,0,1-9.5-8.883a1.31,1.31,0,0,1-1.31-1.31A5.9,5.9,0,0,1-9.5-13.456a6.163,6.163,0,0,1,1.31,3.263" transform="translate(10.805 13.456)" fill="#d9cbff"/>
    </g>
    <g id="g1588" transform="translate(283.93 -367.448)">
      <path id="path1590" d="M-8.181-10.2a1.31,1.31,0,0,1-1.31,1.31A1.31,1.31,0,0,1-10.8-10.2a5.9,5.9,0,0,1,1.31-3.266,7.372,7.372,0,0,1,1.006,1.778.253.253,0,0,1,.016.045c.055.162.1.323.155.485a.332.332,0,0,0,.013.045,3.731,3.731,0,0,1,.12.912" transform="translate(10.8 13.467)" fill="#d9cbff"/>
    </g>
    <g id="g1592" transform="translate(260.251 -353.134)">
      <path id="path1594" d="M-8.185-10.194A1.31,1.31,0,0,1-9.5-8.884a1.31,1.31,0,0,1-1.31-1.31A5.9,5.9,0,0,1-9.5-13.457a6.164,6.164,0,0,1,1.31,3.264" transform="translate(10.805 13.457)" fill="#d9cbff"/>
    </g>
    <g id="g1596" transform="translate(268.144 -353.134)">
      <path id="path1598" d="M-8.185-10.194A1.31,1.31,0,0,1-9.5-8.884a1.31,1.31,0,0,1-1.31-1.31A5.9,5.9,0,0,1-9.5-13.457a6.164,6.164,0,0,1,1.31,3.264" transform="translate(10.805 13.457)" fill="#d9cbff"/>
    </g>
    <g id="g1600" transform="translate(276.036 -353.134)">
      <path id="path1602" d="M-8.185-10.194A1.31,1.31,0,0,1-9.5-8.884a1.31,1.31,0,0,1-1.31-1.31A5.9,5.9,0,0,1-9.5-13.457a6.164,6.164,0,0,1,1.31,3.264" transform="translate(10.805 13.457)" fill="#d9cbff"/>
    </g>
    <g id="g1604" transform="translate(283.929 -353.134)">
      <path id="path1606" d="M-8.185-10.194A1.31,1.31,0,0,1-9.5-8.884a1.31,1.31,0,0,1-1.31-1.31A5.9,5.9,0,0,1-9.5-13.457a6.164,6.164,0,0,1,1.31,3.264" transform="translate(10.805 13.457)" fill="#d9cbff"/>
    </g>
    <g id="g1608" transform="translate(243.989 -385.545)">
      <path id="path1610" d="M-68.539-4.4c-.982,2.545-4.689,11.469-6.7,17.873-1.352,4.3-1.867,7.9-2.163,8.853,0,0,10.221-3.283,12.522-3.288,3.544-.009,9.229,7.393,7.835,8.32a77.708,77.708,0,0,1-20.988,7.975c-4.537.846-13.083-4.919-12.408-9.5.948-6.433,12.573-23.391,17-28.2,2.3-2.5,6.106-5.132,4.909-2.03" transform="translate(90.482 5.806)" fill="#fff"/>
    </g>
    <g id="g1612" transform="translate(243.398 -386.14)">
      <path id="path1614" d="M-.021-104.926c.214,4.634,6.011,8.535,9.373,8.741,5.8.352,23.193-4.714,23.193-4.714l-6.761-13.026s-11.836,4.018-12.137,4.131v-.005c.1-.345,3.021-11.306,4.325-14.938.07-.2.15-.405.226-.621.375-1.006.89-2.334,1.458-3.77l.006-.01c.315-.794.648-1.625.975-2.445v-.005c1.43-3.551,2.823-6.931,2.823-6.931-1.992.327-3.96,1.374-7.19,4.765S-.375-112.571-.021-104.926" transform="translate(0.028 138.518)" fill="#004a4b"/>
    </g>
    <g id="g1616" transform="translate(264.399 -386.128)">
      <path id="path1618" d="M-7.555-.465v.006A1.3,1.3,0,0,1-7.93.454a1.3,1.3,0,0,1-.934.394A1.3,1.3,0,0,1-9.973.231,7.668,7.668,0,0,1-7.558-.613c0,.052,0,.1,0,.149" transform="translate(9.973 0.613)" fill="#d9cbff"/>
    </g>
    <g id="g1620" transform="translate(256.305 -374.928)">
      <path id="path1622" d="M-8.185-10.193A1.31,1.31,0,0,1-9.5-8.883a1.31,1.31,0,0,1-1.31-1.31A5.9,5.9,0,0,1-9.5-13.456a6.163,6.163,0,0,1,1.31,3.263" transform="translate(10.805 13.456)" fill="#d9cbff"/>
    </g>
    <g id="g1624" transform="translate(260.251 -381.76)">
      <path id="path1626" d="M-8.185-10.193A1.31,1.31,0,0,1-9.5-8.883a1.31,1.31,0,0,1-1.31-1.31A5.9,5.9,0,0,1-9.5-13.456a6.163,6.163,0,0,1,1.31,3.263" transform="translate(10.805 13.456)" fill="#d9cbff"/>
    </g>
    <g id="g1628" transform="translate(248.412 -360.615)">
      <path id="path1630" d="M-8.185-10.193A1.31,1.31,0,0,1-9.5-8.883a1.31,1.31,0,0,1-1.31-1.31A5.9,5.9,0,0,1-9.5-13.456a6.163,6.163,0,0,1,1.31,3.263" transform="translate(10.805 13.456)" fill="#d9cbff"/>
    </g>
    <g id="g1632" transform="translate(256.306 -360.616)">
      <path id="path1634" d="M-8.181-10.191A1.311,1.311,0,0,1-9.49-8.878a1.311,1.311,0,0,1-1.31-1.313,5.9,5.9,0,0,1,1.31-3.263s.1.12.236.327C-9.7-11.5-10-10.369-10.034-10.259v.006c.071-.026.763-.265,1.785-.611a3.594,3.594,0,0,1,.068.673" transform="translate(10.8 13.453)" fill="#d9cbff"/>
    </g>
    <g id="g1636" transform="translate(264.198 -360.615)">
      <path id="path1638" d="M-8.185-10.193A1.31,1.31,0,0,1-9.5-8.883a1.31,1.31,0,0,1-1.31-1.31A5.9,5.9,0,0,1-9.5-13.456a6.163,6.163,0,0,1,1.31,3.263" transform="translate(10.805 13.456)" fill="#d9cbff"/>
    </g>
    <g id="g1640" transform="translate(252.359 -367.447)">
      <path id="path1642" d="M-8.185-10.193A1.31,1.31,0,0,1-9.5-8.883a1.31,1.31,0,0,1-1.31-1.31A5.9,5.9,0,0,1-9.5-13.456a6.163,6.163,0,0,1,1.31,3.263" transform="translate(10.805 13.456)" fill="#d9cbff"/>
    </g>
    <g id="g1644" transform="translate(244.466 -353.134)">
      <path id="path1646" d="M-8.185-10.194A1.31,1.31,0,0,1-9.5-8.884a1.31,1.31,0,0,1-1.31-1.31A5.9,5.9,0,0,1-9.5-13.457a6.164,6.164,0,0,1,1.31,3.264" transform="translate(10.805 13.457)" fill="#d9cbff"/>
    </g>
    <g id="g1648" transform="translate(248.963 -346.301)">
      <path id="path1650" d="M-5.828-6.434a11.633,11.633,0,0,1-1.866-.86,6.493,6.493,0,0,1,.76-1.2,7.2,7.2,0,0,1,1.106,2.06" transform="translate(7.693 8.493)" fill="#d9cbff"/>
    </g>
    <g id="g1652" transform="translate(256.442 -346.301)">
      <path id="path1654" d="M-6.989-6.05c-.779.133-1.529.249-2.238.34A6.555,6.555,0,0,1-8.053-7.987,7.226,7.226,0,0,1-6.989-6.05" transform="translate(9.227 7.987)" fill="#d9cbff"/>
    </g>
    <g id="g1656" transform="translate(265.072 -346.301)">
      <path id="path1658" d="M-2.343-1.384l-.75.175a6.325,6.325,0,0,1,.437-.618s.133.165.314.443" transform="translate(3.093 1.827)" fill="#d9cbff"/>
    </g>
    <g id="g1660" transform="translate(252.359 -353.134)">
      <path id="path1662" d="M-8.185-10.194A1.31,1.31,0,0,1-9.5-8.884a1.31,1.31,0,0,1-1.31-1.31A5.9,5.9,0,0,1-9.5-13.457a6.164,6.164,0,0,1,1.31,3.264" transform="translate(10.805 13.457)" fill="#d9cbff"/>
    </g>
    <g id="g1664" transform="translate(260.251 -353.134)">
      <path id="path1666" d="M-8.185-10.194A1.31,1.31,0,0,1-9.5-8.884a1.31,1.31,0,0,1-1.31-1.31A5.9,5.9,0,0,1-9.5-13.457a6.164,6.164,0,0,1,1.31,3.264" transform="translate(10.805 13.457)" fill="#d9cbff"/>
    </g>
    <g id="g1668" transform="translate(268.144 -353.134)">
      <path id="path1670" d="M-8.185-10.194A1.31,1.31,0,0,1-9.5-8.884a1.31,1.31,0,0,1-1.31-1.31A5.9,5.9,0,0,1-9.5-13.457a6.164,6.164,0,0,1,1.31,3.264" transform="translate(10.805 13.457)" fill="#d9cbff"/>
    </g>
    <g id="g1672" transform="translate(267.131 -359.65)">
      <path id="path1674" d="M-13.529-25.959c-.482-.922-.973-1.84-1.457-2.761q-.712-1.353-1.441-2.7a31.235,31.235,0,0,1-1.432-2.828.018.018,0,0,1,.03-.018A23.632,23.632,0,0,1-16.219-31.7c.518.9,1.023,1.815,1.523,2.728.49.895.962,1.8,1.428,2.707a23.157,23.157,0,0,1,1.307,2.894c.014.04-.041.079-.067.04a27.689,27.689,0,0,1-1.5-2.625" transform="translate(17.86 34.27)" fill="#d9cbff"/>
    </g>
    <g id="g1676" transform="translate(253.452 -376.749)">
      <path id="path1678" d="M0-66.39l3.614-1.917.005,0v-.005c.1-.345,3.021-11.306,4.325-14.937.07-.2.15-.406.226-.621.375-1.006.89-2.334,1.458-3.77Z" transform="translate(0 87.645)" fill="#d9cbff"/>
    </g>
    <g id="g1680" transform="translate(250.45 -357.533)">
      <path id="path1682" d="M-.031-11.337a29.947,29.947,0,0,1,3.175-2.037c.545-.308,1.1-.592,1.672-.848.608-.271,1.25-.468,1.854-.741a.039.039,0,0,1,.034.071c-.564.255-1.1.61-1.645.908q-.849.463-1.709.907C2.224-12.5,1.118-11.883,0-11.291c-.027.015-.055-.027-.03-.046" transform="translate(0.041 14.966)" fill="#d9cbff"/>
    </g>
    <g id="g1684" transform="translate(253.091 -384.774)">
      <path id="path1686" d="M0-87.656c.907.012,6.384-1.451,7.181-.7,4.861,4.583,6.4,3.659,7.433,4.256,8.01,4.608,18.706,10.022,22.524,10.056,5.79.047,8.1-4.812,7.132-9.4-1.9-9.076-14.143-26.772-19.681-31.474-2.937-2.489-2.7,1.266-1.49,5.347.712,2.393,1.958,5.952,3.229,9.444,1.126,3.111,4.108,11.06,4.16,11.247v.005c0,.011.01.016.009.022,0,.021-.017.025-.064.012a103.763,103.763,0,0,0-13.992-5.048c-2.427-.625-7.482-1.515-9.295-.706-1.077.481-1.1,1.124-1.1,1.124a2.653,2.653,0,0,0-1.775.672,2.594,2.594,0,0,0-.792,1.2,2.722,2.722,0,0,0-1.437.68,2.5,2.5,0,0,0-.638,1.345C.134-89.234,0-87.656,0-87.656" transform="translate(0 115.719)" fill="#fff"/>
    </g>
    <g id="g1688" transform="translate(259.085 -362.721)">
      <path id="path1690" d="M-6.549,0A13.554,13.554,0,0,1-4.389.239c.049.008.047.084,0,.079C-5.1.241-5.811.224-6.52.2S-7.938.162-8.643.176a0,0,0,0,1,0-.008A11.645,11.645,0,0,1-6.549,0" transform="translate(8.646 0.004)" fill="#004a4b"/>
    </g>
    <g id="g1692" transform="translate(256.588 -361.115)">
      <path id="path1694" d="M-.032-1.3A8.759,8.759,0,0,1,3.8-1.641c.05.006.047.082,0,.079A14.876,14.876,0,0,0-.03-1.276c-.016,0-.016-.023,0-.027" transform="translate(0.042 1.721)" fill="#004a4b"/>
    </g>
    <g id="g1696" transform="translate(254.499 -359.351)">
      <path id="path1698" d="M-.051-2.121A8.582,8.582,0,0,1,3.57-2.8c.049,0,.066.072.014.077a21.2,21.2,0,0,0-3.617.657.03.03,0,0,1-.018-.056" transform="translate(0.067 2.8)" fill="#004a4b"/>
    </g>
    <g id="g1700" transform="translate(269.828 -362.867)">
      <path id="path1702" d="M-.13,0a16.631,16.631,0,0,1,1.79.4c.628.155,1.252.325,1.866.527a35.626,35.626,0,0,1,3.6,1.428.039.039,0,0,1-.027.074c-1.2-.42-2.41-.814-3.622-1.2C2.882,1.046,2.289.847,1.7.653,1.087.453.452.3-.147.075A.039.039,0,0,1-.13,0" transform="translate(0.171 0.001)" fill="#004a4b"/>
    </g>
    <g id="g1704" transform="translate(265.613 -386.166)">
      <path id="path1706" d="M-28.258-76.833a6.734,6.734,0,0,0-1.841-.432L-37.305-65.1s19.849,7.146,23.925,7.564A8.128,8.128,0,0,0-4.59-65.44c.11-7.191-11.617-24.461-17.516-31.139-2.7-3.061-5.856-5.284-6.659-4.782-.95.593.774,4.441,1.683,7.312,1.678,5.3,7.69,20.886,7.69,20.886s-7.356-3.158-8.866-3.67" transform="translate(37.305 101.432)" fill="#004a4b"/>
    </g>
    <g id="g1708" transform="translate(273.876 -386.167)">
      <path id="path1710" d="M-2.608-.585a1.314,1.314,0,0,1-.779,1.2C-3.5-.045-3.456-.52-3.168-.7A.754.754,0,0,1-2.612-.74c0,.052,0,.1,0,.155" transform="translate(3.444 0.772)" fill="#d9cbff"/>
    </g>
    <g id="g1712" transform="translate(279.983 -374.928)">
      <path id="path1714" d="M-8.185-10.193A1.31,1.31,0,0,1-9.5-8.883a1.31,1.31,0,0,1-1.31-1.31A5.9,5.9,0,0,1-9.5-13.456a6.163,6.163,0,0,1,1.31,3.263" transform="translate(10.805 13.456)" fill="#d9cbff"/>
    </g>
    <g id="g1716" transform="translate(287.875 -372.024)">
      <path id="path1718" d="M-3.555-5.171a1.309,1.309,0,0,1-1.138-1.3,3.337,3.337,0,0,1,.019-.359q.563.815,1.119,1.656" transform="translate(4.693 6.827)" fill="#d9cbff"/>
    </g>
    <g id="g1720" transform="translate(276.036 -381.76)">
      <path id="path1722" d="M-8.185-10.193A1.31,1.31,0,0,1-9.5-8.883a1.31,1.31,0,0,1-1.31-1.31A5.9,5.9,0,0,1-9.5-13.456a6.163,6.163,0,0,1,1.31,3.263" transform="translate(10.805 13.456)" fill="#d9cbff"/>
    </g>
    <g id="g1724" transform="translate(272.09 -360.615)">
      <path id="path1726" d="M-8.185-10.193A1.31,1.31,0,0,1-9.5-8.883a1.31,1.31,0,0,1-1.31-1.31A5.9,5.9,0,0,1-9.5-13.456a6.163,6.163,0,0,1,1.31,3.263" transform="translate(10.805 13.456)" fill="#d9cbff"/>
    </g>
    <g id="g1728" transform="translate(279.982 -359.212)">
      <path id="path1730" d="M-8.191-5.807A1.313,1.313,0,0,1-9.5-4.495a1.314,1.314,0,0,1-1.313-1.313,4.527,4.527,0,0,1,.453-1.859c.773.327,1.481.627,2.024.86a3.714,3.714,0,0,1,.146,1" transform="translate(10.813 7.667)" fill="#d9cbff"/>
    </g>
    <g id="g1732" transform="translate(287.875 -360.615)">
      <path id="path1734" d="M-8.185-10.193A1.31,1.31,0,0,1-9.5-8.883a1.31,1.31,0,0,1-1.31-1.31A5.9,5.9,0,0,1-9.5-13.456a6.163,6.163,0,0,1,1.31,3.263" transform="translate(10.805 13.456)" fill="#d9cbff"/>
    </g>
    <g id="g1736" transform="translate(295.768 -358.375)">
      <path id="path1738" d="M-3.575-7.252a1.31,1.31,0,0,1-1.145-1.3,3.842,3.842,0,0,1,.146-1.022c.369.8.7,1.571,1,2.322" transform="translate(4.72 9.573)" fill="#d9cbff"/>
    </g>
    <g id="g1740" transform="translate(283.929 -367.447)">
      <path id="path1742" d="M-8.185-10.193A1.31,1.31,0,0,1-9.5-8.883a1.31,1.31,0,0,1-1.31-1.31A5.9,5.9,0,0,1-9.5-13.456a6.163,6.163,0,0,1,1.31,3.263" transform="translate(10.805 13.456)" fill="#d9cbff"/>
    </g>
    <g id="g1744" transform="translate(291.823 -365.531)">
      <path id="path1746" d="M-5.434-8.07A1.265,1.265,0,0,1-5.864-8,1.31,1.31,0,0,1-7.173-9.3a4.221,4.221,0,0,1,.243-1.348q.781,1.3,1.5,2.584" transform="translate(7.173 10.653)" fill="#d9cbff"/>
    </g>
    <g id="g1748" transform="translate(280.379 -346.301)">
      <path id="path1750" d="M-6.413-6.787c-.666-.207-1.355-.424-2.053-.65A6.707,6.707,0,0,1-7.552-8.96,7.065,7.065,0,0,1-6.413-6.787" transform="translate(8.467 8.96)" fill="#d9cbff"/>
    </g>
    <g id="g1752" transform="translate(287.875 -346.301)">
      <path id="path1754" d="M-8.191-10.191a1.287,1.287,0,0,1-.285.808,5.914,5.914,0,0,1-.676-.036,13.18,13.18,0,0,1-1.571-.294,1.312,1.312,0,0,1-.091-.479A5.887,5.887,0,0,1-9.5-13.453a6.155,6.155,0,0,1,1.313,3.263" transform="translate(10.813 13.453)" fill="#d9cbff"/>
    </g>
    <g id="g1756" transform="translate(296.207 -346.301)">
      <path id="path1758" d="M-3.05-.444A7.949,7.949,0,0,1-4.027.839a6.658,6.658,0,0,1,.87-1.426s.042.052.107.142" transform="translate(4.027 0.587)" fill="#d9cbff"/>
    </g>
    <g id="g1760" transform="translate(268.144 -353.134)">
      <path id="path1762" d="M-8.185-10.194A1.31,1.31,0,0,1-9.5-8.884a1.31,1.31,0,0,1-1.31-1.31A5.9,5.9,0,0,1-9.5-13.457a6.164,6.164,0,0,1,1.31,3.264" transform="translate(10.805 13.457)" fill="#d9cbff"/>
    </g>
    <g id="g1764" transform="translate(276.036 -353.134)">
      <path id="path1766" d="M-8.185-10.194A1.31,1.31,0,0,1-9.5-8.884a1.31,1.31,0,0,1-1.31-1.31A5.9,5.9,0,0,1-9.5-13.457a6.164,6.164,0,0,1,1.31,3.264" transform="translate(10.805 13.457)" fill="#d9cbff"/>
    </g>
    <g id="g1768" transform="translate(283.929 -353.134)">
      <path id="path1770" d="M-8.185-10.194A1.31,1.31,0,0,1-9.5-8.884a1.31,1.31,0,0,1-1.31-1.31A5.9,5.9,0,0,1-9.5-13.457a6.164,6.164,0,0,1,1.31,3.264" transform="translate(10.805 13.457)" fill="#d9cbff"/>
    </g>
    <g id="g1772" transform="translate(291.822 -353.134)">
      <path id="path1774" d="M-8.185-10.194A1.31,1.31,0,0,1-9.5-8.884a1.31,1.31,0,0,1-1.31-1.31A5.9,5.9,0,0,1-9.5-13.457a6.164,6.164,0,0,1,1.31,3.264" transform="translate(10.805 13.457)" fill="#d9cbff"/>
    </g>
    <g id="g1776" transform="translate(272.75 -362.009)">
      <path id="path1778" d="M-.417,0A49.719,49.719,0,0,1,7.907,2.766a40.847,40.847,0,0,1,6.768,3.657c1.207.814,2.352,1.7,3.483,2.616.039.032,0,.094-.045.064a61.659,61.659,0,0,0-6.565-4.038,61.933,61.933,0,0,0-6.9-3.287C3.291,1.25.964.46-.358.113-.732.015-.451,0-.417,0" transform="translate(0.55 0.001)" fill="#d9cbff"/>
    </g>
    <g id="g1780" transform="translate(277.446 -374.687)">
      <path id="path1782" d="M-.617-6.361c.3.488.609.973.867,1.486L.286-4.8q-.576-1.751-1.1-3.517c-.021-.072.1-.111.126-.041C1.02-4.04,2.6.332,4.138,4.715c.429,1.226.807,2.464,1.2,3.7.014.043-.056.064-.074.024-.469-1.062-.941-2.116-1.37-3.2s-.827-2.172-1.23-3.261Q1.6-.873.638-3.758c-.2-.337-.407-.673-.6-1.016C-.24-5.274-.469-5.8-.7-6.32a.047.047,0,0,1,.085-.041" transform="translate(0.814 8.397)" fill="#d9cbff"/>
    </g>
    <g id="g1784" transform="translate(269.002 -360.541)">
      <path id="path1786" d="M-4.5-25.178c.528-.9,1.049-1.8,1.575-2.7q.773-1.319,1.529-2.648a31.344,31.344,0,0,1,1.645-2.71.018.018,0,0,1,.031.016A23.616,23.616,0,0,1-1.041-30.5c-.494.917-1,1.827-1.512,2.734-.5.889-1.019,1.767-1.544,2.642a23.114,23.114,0,0,1-1.767,2.639c-.026.033-.088.007-.069-.036A27.7,27.7,0,0,1-4.5-25.178" transform="translate(5.937 33.239)" fill="#d9cbff"/>
    </g>
    <g id="g1788" transform="translate(265.325 -353.279)">
      <path id="path1790" d="M0-10.855c.6-1.179,1.528-2.337,2.217-3.458.026-.043.089,0,.064.045-.625,1.052-1.2,2.186-1.8,3.255C3.21-9.887,6.1-8.884,8.885-7.9c2.853,1.011,5.725,1.97,8.636,2.809,1.627.469,3.257.977,4.895,1.407.1.027.075.111-.03.091A74.253,74.253,0,0,1,13.7-5.9c-2.908-.923-5.778-1.953-8.635-3.021C3.454-9.524-.05-10.759,0-10.855" transform="translate(0.002 14.33)" fill="#d9cbff"/>
    </g>
    <g id="g1792" transform="translate(270.053 -369.458)">
      <path id="path1794" d="M0-20.614a96.778,96.778,0,0,1,9.994,3.3c.051.018.1.035.143.053,1.7.669,2.757,1.165,3.01,1.207a.463.463,0,0,0,.053-.034V-16.1a2.261,2.261,0,0,1,.527-.29c.48-.172,5.092-.748,4.975-2.177-.112-1.413-1.992-1.325-2.268-1.306.3-.065,2.8-.652,1.987-1.9-.576-.887-3.055-.756-3.3-.746.253-.083,2.552-.833,1.761-2.109-.566-.913-3.334-.794-3.653-.74.259-.1,2.308-.441,1.352-1.541-.664-.766-5.876.013-8.192,1.169A24.335,24.335,0,0,0,0-20.614" transform="translate(0 27.214)" fill="#fff"/>
    </g>
    <g id="g1796" transform="translate(280.047 -362.135)">
      <path id="path1798" d="M0-8.036c.051.018.1.035.143.053a16.639,16.639,0,0,1,6.2-2.529c.147-.019.157-.1,0-.1A11.428,11.428,0,0,0,0-8.036" transform="translate(0 10.608)" fill="#004a4b"/>
    </g>
    <g id="g1800" transform="translate(277.408 -364.752)">
      <path id="path1802" d="M-23.89-.263a18.55,18.55,0,0,0-7.588,3.169c-.04.026-.084-.033-.046-.062C-28.893.875-27.256-.1-23.918-.347c.151-.011.178.053.028.083" transform="translate(31.539 0.348)" fill="#004a4b"/>
    </g>
    <g id="g1804" transform="translate(275.734 -367.637)">
      <path id="path1806" d="M-23.248-.291a16.671,16.671,0,0,0-7.345,3.615c-.06.049-.134-.025-.078-.079A11.792,11.792,0,0,1-23.278-.377c.2-.027.228.034.03.087" transform="translate(30.691 0.384)" fill="#004a4b"/>
    </g>
    <g id="g1808" transform="translate(266.15 -393.523)">
      <path id="path1810" d="M-3.938-37.96c1.865.671,5.487-1.885,7.055-4.111.107-.153.052-1.9.085-4.018.026-1.288.084-2.72.232-4.024l-8.4,1.059a20.931,20.931,0,0,1,.222,5.1,2.951,2.951,0,0,1-.117.529c-.005.024-.016.053-.022.087-.281,1-.856,4.734.946,5.383" transform="translate(5.199 50.113)" fill="#fff"/>
    </g>
    <g id="g1812" transform="translate(266.381 -393.523)">
      <path id="path1814" d="M-.252-21.141a1.3,1.3,0,0,0-.043.183c5.03-.213,6.943-2.425,8.181-4.546.038-.809.092-1.629.183-2.405l-8.4,1.057a20.783,20.783,0,0,1,.221,5.1,2.728,2.728,0,0,1-.119.528c-.005.022-.011.054-.022.086" transform="translate(0.333 27.909)" fill="#004a4b"/>
    </g>
    <g id="g1816" transform="translate(267.644 -400.81)">
      <path id="path1818" d="M-31.952-5.8S-26.875-.437-27.705.534s-8.243-.419-9.868-1.7-4.608-6.5-4.608-6.5Z" transform="translate(42.181 7.661)" fill="#ff8f3c"/>
    </g>
    <g id="g1820" transform="translate(263.117 -408.715)">
      <path id="path1822" d="M-43.53-14.822C-42.648-11.9-44.216-3.477-46.3-1.6c-3.017,2.715-7.944,2.96-10.247-.664-2.233-3.513,0-14.455,2.328-16.156,3.422-2.5,9.385-.712,10.687,3.6" transform="translate(57.466 19.567)" fill="#fff"/>
    </g>
    <g id="g1824" transform="translate(267.341 -395.792)">
      <path id="path1826" d="M0-1.825a2.111,2.111,0,0,0,.825.678.95.95,0,0,0,.575.052c.42-.1.441-.48.374-.809A2.256,2.256,0,0,0,1.6-2.409,2.731,2.731,0,0,1,0-1.825" transform="translate(0 2.409)" fill="#fff"/>
    </g>
    <g id="g1828" transform="translate(267.708 -394.846)">
      <path id="path1830" d="M0-.114c.026.022.056.047.086.069a1.814,1.814,0,0,0,.4-.106C.319-.135.157-.123,0-.114" transform="translate(0 0.151)" fill="#fff"/>
    </g>
    <g id="g1832" transform="translate(268.6 -395.34)">
      <path id="path1834" d="M0-1.116a1.338,1.338,0,0,0,.294-.112A1.374,1.374,0,0,0,.521-1.38c0-.011,0-.026-.006-.037S.509-1.455.5-1.473a5.017,5.017,0,0,1-.5.357" transform="translate(0 1.473)" fill="#fff"/>
    </g>
    <g id="g1836" transform="translate(269.74 -399.254)">
      <path id="path1838" d="M-.453-.014c.008-.021.039.035.035.058C-.54.609-.583,1.276-.1,1.557c.015.008.008.037-.011.031-.611-.2-.545-1.087-.34-1.6" transform="translate(0.598 0.019)" fill="#004a4b"/>
    </g>
    <g id="g1840" transform="translate(269.784 -399.753)">
      <path id="path1842" d="M-2.235-.008c.926.1.666,1.941-.192,1.852s-.584-1.932.192-1.852" transform="translate(2.95 0.011)" fill="#004a4b"/>
    </g>
    <g id="g1844" transform="translate(265.564 -399.78)">
      <path id="path1846" d="M-2.62-.02c0-.023-.049.021-.051.044C-2.733.6-2.9,1.245-3.445,1.362c-.017,0-.019.033,0,.033.643,0,.858-.861.825-1.415" transform="translate(3.459 0.026)" fill="#004a4b"/>
    </g>
    <g id="g1848" transform="translate(265.093 -400.457)">
      <path id="path1850" d="M-2.761-.047c-.909-.2-1.241,1.634-.4,1.819S-2,.12-2.761-.047" transform="translate(3.646 0.062)" fill="#004a4b"/>
    </g>
    <g id="g1852" transform="translate(270.012 -401.919)">
      <path id="path1854" d="M-4.169-4.458a7.256,7.256,0,0,1-.679-.352A1.238,1.238,0,0,1-5.472-5.3a.394.394,0,0,1,.129-.463.977.977,0,0,1,.989.038A1.434,1.434,0,0,1-3.621-5a.42.42,0,0,1-.547.539" transform="translate(5.503 5.886)" fill="#004a4b"/>
    </g>
    <g id="g1856" transform="translate(264.961 -402.6)">
      <path id="path1858" d="M-1.354-3.523a7.124,7.124,0,0,0,.76-.087,1.235,1.235,0,0,0,.759-.236.394.394,0,0,0,.044-.479.977.977,0,0,0-.937-.318,1.435,1.435,0,0,0-.945.421.42.42,0,0,0,.319.7" transform="translate(1.787 4.651)" fill="#004a4b"/>
    </g>
    <g id="g1860" transform="translate(268.195 -393.988)">
      <path id="path1862" d="M-3.6-.02c-.156.114-.318.279-.528.267a1.521,1.521,0,0,1-.594-.23.02.02,0,0,0-.029.026.777.777,0,0,0,.682.413A.615.615,0,0,0-3.551.014c.013-.032-.029-.05-.051-.034" transform="translate(4.756 0.026)" fill="#004a4b"/>
    </g>
    <g id="g1864" transform="translate(265.722 -402.331)">
      <path id="path1866" d="M-10.2-20.47a1.964,1.964,0,0,1-1.421.683,2.474,2.474,0,0,1-.7-.067.694.694,0,0,1-.132-.034c-.041-.011-.078-.021-.123-.037a.144.144,0,0,1-.1-.144v0a.284.284,0,0,1,.014-.058v0l.008-.05c.05-.442.187-1.1.187-1.1-.172.058-1.044.311-1,.083a29.572,29.572,0,0,1,1.585-5.783.053.053,0,0,1,.1.029c-.3,1.828-.91,3.592-1.236,5.424a3.438,3.438,0,0,1,.958-.149c.06.027-.288,1.277-.294,1.477a.08.08,0,0,0,0,.022,2.726,2.726,0,0,0,2.1-.341c.047-.027.087.018.046.059" transform="translate(13.468 27.024)" fill="#004a4b"/>
    </g>
    <g id="g1868" transform="translate(264.24 -409.815)">
      <path id="path1870" d="M-39.649-41.63c-1.569-.611-1.878-6.1-1.878-6.1s-.2,2.294-.627,2.2-1.892-3.377-1.88-5.63a17.587,17.587,0,0,1-4.272,1.607c-2.1.416-4.069.694-4.037.347.1-1.034,1.353-3.85,2.847-4.674a6.85,6.85,0,0,1,7.085-.184c3.216,1.592,3.811,3.376,4.149,5.084s-.81,7.572-1.387,7.347" transform="translate(52.343 54.958)" fill="#004a4b"/>
    </g>
    <g id="g1872" transform="translate(264.195 -410.093)">
      <path id="path1874" d="M-10.7-15a2.187,2.187,0,0,1,2.693-1.463A2.3,2.3,0,0,1-5.99-13.909,14.835,14.835,0,0,0-10.7-15m-3.426.826s5.033-.248,8.7,1.627C-3.99-11.806-.36-8.135-.36-8.135A14.732,14.732,0,0,0-.19-14.7c-1.153-5.03-7.384-5.887-10.31-4.509-2.627,1.24-3.628,5.037-3.628,5.037" transform="translate(14.128 19.796)" fill="#1cbfb6"/>
    </g>
    <g id="g1876" transform="translate(274.692 -399.198)">
      <path id="path1878" d="M-1.682-6.533S.287-9.214,1.508-8.506,1.2-3.881-.26-3.374a1.476,1.476,0,0,1-1.96-.839Z" transform="translate(2.22 8.625)" fill="#fff"/>
    </g>
    <g id="g1880" transform="translate(275.489 -397.967)">
      <path id="path1882" d="M-7.7,0A.02.02,0,0,1-7.7.039,3.733,3.733,0,0,0-9.68,2.329a.815.815,0,0,1,1.225-.195c.026.02,0,.06-.029.054a.908.908,0,0,0-1.007.294,4.372,4.372,0,0,0-.5.8c-.05.09-.213.038-.176-.067l.009-.023C-10.15,1.891-9.1.1-7.7,0" transform="translate(10.169 0)" fill="#004a4b"/>
    </g>
  </g>
</svg>
