<svg xmlns="http://www.w3.org/2000/svg" width="20.134" height="20.034" viewBox="0 0 20.134 20.034">
  <path id="Caminho_3" data-name="Caminho 3" d="M4,16.2A8.765,8.765,0,1,1,15.89,3.834,8.764,8.764,0,1,1,4.012,16.211L4,16.2ZM11.249,3.339a7.93,7.93,0,1,1-7.93,7.93A7.934,7.934,0,0,1,11.249,3.339Zm.417,12.521h-.852v-.727a2.282,2.282,0,0,1-2.169-2.291h.911c.021.338.131,1.481,1.821,1.481a1.959,1.959,0,0,0,1.213-.35,1.032,1.032,0,0,0,.447-.859c0-.662-.428-1.141-1.728-1.434-1.977-.447-2.44-1.167-2.44-2.114a2.088,2.088,0,0,1,1.945-2.008v-.88h.852v.847a2.24,2.24,0,0,1,2.25,2.313H13a1.5,1.5,0,0,0-1.666-1.474c-.9,0-1.548.444-1.548,1.175,0,.652.366.972,1.664,1.3,1.568.395,2.5.919,2.5,2.238a2.186,2.186,0,0,1-2.287,2.081v.7Zm2.379-12.9A7.928,7.928,0,0,0,3.057,14.39l0-.008A8.769,8.769,0,0,1,14.046,2.961Z" transform="translate(0.12)" fill="#fff" fill-rule="evenodd"/>
</svg>
