<svg xmlns="http://www.w3.org/2000/svg" width="21.646" height="19.843" viewBox="0 0 21.646 19.843">
  <path id="Caminho_4" data-name="Caminho 4" d="M15.333,9.7V7.634c-1.055-.376-1.72-.481-2.056-1.291s.063-1.364.541-2.368l-1.459-1.46c-1,.474-1.554.878-2.368.541S9.073,2.05,8.7,1H6.634c-.372,1.044-.478,1.72-1.291,2.056h0c-.812.337-1.362-.063-2.368-.541L1.516,3.975c.475,1,.878,1.555.541,2.368S1.044,7.262,0,7.634V9.7c1.042.372,1.72.479,2.056,1.291s-.073,1.384-.541,2.368l1.459,1.46c1-.474,1.555-.878,2.368-.541h0c.812.336.918,1.008,1.291,2.056H8.7c.372-1.044.478-1.718,1.3-2.058h0c.806-.336,1.354.064,2.362.543l1.459-1.46c-.474-1-.878-1.554-.542-2.368s1.016-.919,2.058-1.29ZM7.666,11.223a2.556,2.556,0,1,1,2.555-2.556A2.556,2.556,0,0,1,7.666,11.223Zm13.98,3.793v-.971c-.5-.177-.809-.226-.968-.607s.03-.641.254-1.115l-.687-.687c-.469.224-.731.413-1.114.255s-.432-.474-.608-.968h-.97c-.175.492-.225.809-.608.968s-.641-.03-1.114-.255l-.687.687c.224.472.413.732.254,1.115s-.476.432-.968.607v.971c.491.174.809.225.968.607s-.034.651-.254,1.115l.687.687c.47-.224.732-.413,1.114-.255s.432.474.608.968h.97c.175-.492.225-.809.61-.969h0c.38-.158.637.031,1.111.256l.687-.687c-.223-.47-.413-.732-.254-1.114s.477-.434.968-.608Zm-3.608.716a1.2,1.2,0,1,1,1.2-1.2A1.2,1.2,0,0,1,18.039,15.731ZM14.431,18.5v-.729c-.372-.133-.607-.17-.726-.455s.022-.481.191-.836l-.516-.515c-.351.168-.547.31-.835.191s-.324-.355-.456-.726h-.728c-.132.369-.17.607-.456.726s-.481-.022-.835-.191l-.516.515c.169.354.31.549.191.836s-.357.324-.726.455V18.5c.368.131.607.17.726.455s-.025.489-.191.836l.516.515c.352-.168.548-.31.835-.191s.324.356.456.726h.728c.132-.369.17-.607.457-.726h0c.284-.118.477.023.833.192l.516-.515c-.168-.353-.31-.549-.191-.836s.358-.326.726-.456Zm-2.706.538a.9.9,0,1,1,.9-.9A.9.9,0,0,1,11.725,19.039Z" transform="translate(0 -1)" fill="#fff"/>
</svg>
