<svg xmlns="http://www.w3.org/2000/svg" width="20" height="20" viewBox="0 0 20 20">
  <path id="Caminho_1" data-name="Caminho 1" d="M16.667,16.667H13.333V13.333h3.333Zm-5-8.333H8.333v3.333h3.333Zm5,0H13.333v3.333h3.333Zm-10,5H3.333v3.333H6.667Zm5,0H8.333v3.333h3.333Zm-5-5H3.333v3.333H6.667ZM20,1.667V20H0V1.667H2.5V2.5a1.667,1.667,0,0,0,3.333,0V1.667h8.333V2.5a1.667,1.667,0,0,0,3.333,0V1.667Zm-1.667,5H1.667V18.333H18.333ZM16.667.833A.833.833,0,1,0,15,.833V2.5a.833.833,0,1,0,1.667,0ZM5,2.5a.833.833,0,0,1-1.667,0V.833A.833.833,0,0,1,5,.833Z" fill="#fff"/>
</svg>
