<svg xmlns="http://www.w3.org/2000/svg" width="134.286" height="82.398" viewBox="0 0 134.286 82.398">
  <g id="Grupo_434" data-name="Grupo 434" transform="translate(-1028 -64)">
    <g id="Grupo_480" data-name="Grupo 480">
      <text id="BarberSys" transform="translate(1028 98)" fill="#0d1657" font-size="38" font-family="BebasNeue-Regular, Bebas Neue"><tspan x="0" y="0" fill="#000">Barber</tspan><tspan y="0" fill="#0d1657">Sys</tspan></text>
      <g id="Grupo_154" data-name="Grupo 154" transform="translate(1029.809 102.96)" opacity="0.25">
        <g id="Grupo_146" data-name="Grupo 146" transform="translate(34.224 11.052)">
          <path id="Caminho_1562" data-name="Caminho 1562" d="M257.679,527.945c-.215-2.825-1.75-4.975-2.442-7.616-.277-1.06-.44-2.062-1.14-2.259-.8-.224-2.283.583-3.242.917-3.324,1.153-6.415,1.906-8.593,3.88-.831.756-1.312,1.856-2.254,2.5a5.478,5.478,0,0,0-5.436-.207,18.854,18.854,0,0,0-1.441-1.731,11.967,11.967,0,0,0-1.59-1.58c-.535-.36-1.413-.693-2.119-1.051-2.323-1.183-4.693-2.566-7.031-3.6a6.414,6.414,0,0,0-2.4,2.951c-.109.464.056,1.039-.069,1.659-.241,1.173-1.66,1.615-1.8,2.8s.605,1.739.916,2.489a5.731,5.731,0,0,1,.458,1.958c.1,2.444,0,4.463.851,6.034.374.684,1.256,1.5,1.747,2.411.362.675.542,1.5,1.135,1.581a5.909,5.909,0,0,0,1.962-.684c4-1.582,7.87-3.641,9.786-7.053a7.145,7.145,0,0,0,1.962-.235c1.328-.1,2.743.174,3.849-.012,2.851,2.973,5.13,6.6,9.765,7.739.511.125,1.466.617,1.963.521.428-.081.738-.855,1.051-1.21.505-.572,1.215-1.022,1.581-1.442a13.208,13.208,0,0,0,2.537-8.764" transform="translate(-206.935 -506.987)" fill="#31375b" fill-rule="evenodd"/>
          <path id="Caminho_1563" data-name="Caminho 1563" d="M225.709,536.444c0-.886-1.5-.5-.828.456A.551.551,0,0,0,225.709,536.444Zm-1.059-.978c-.1-1.106-1.805.464-.227.454C224.534,535.683,224.672,535.7,224.65,535.466Zm1.507-.533C225.41,536.665,228.013,535.19,226.157,534.934Zm-1.056-.073c.413.13.749-.119.676-.683C225.362,533.641,224.6,534.32,225.1,534.861Zm-2.114.082c.457-.025.676-.28.6-.832C223,533.556,222.438,534.566,222.986,534.944Zm4.908-.243.453,0c.153-.121.173-.378.146-.677C228.036,533.551,227.467,534.3,227.894,534.7Zm-1.592-1.427c-.118.577.325.809.759.6C227.329,533.275,226.68,532.82,226.3,533.273Zm-2.718.009a.84.84,0,0,0,.531.3c.316-.066.426-.693.146-.907C223.763,532.6,223.566,532.835,223.584,533.282Zm-1.659.08C223.33,534.376,222.378,531.428,221.925,533.363Zm3.169-.767c.009-.086.118-.082.224-.076C226.033,531.149,223.734,532.017,225.094,532.6Zm-2.039-.067C224.938,532.286,222.166,530.932,223.055,532.529Zm-1.964-.447c.086.344.634.4.905.073C222.128,531.056,220.944,531.5,221.09,532.082Zm5.885-1C225.344,530.4,226.793,532.889,226.975,531.081Zm-2.34.385a.562.562,0,0,0-.606-.6C223.244,531.218,224.27,532.274,224.635,531.467Zm-2.189-.142c.282.031.354-.15.526-.23C223.092,529.785,221.5,530.809,222.447,531.325Zm2.488-.914c.158.165.251.4.605.374l.15-.078c.117-.109.066-.385.073-.6C225.512,529.8,224.889,529.967,224.935,530.41Zm3.849.059c.3-.046.252-.519.148-.753A.4.4,0,1,0,228.784,530.469Zm-5.819-1.94c.855-.884-1.142-1.065-.454,0Zm-2.423-1.729c.15.155.238.368.532.376C221.917,526.7,220.656,525.721,220.542,526.8Zm1.432-.608c.339-.038.519-.235.45-.682C221.885,524.935,221.328,525.973,221.975,526.192Zm-.61-1.281c.424-.114.388-1.121-.3-.829C220.428,524.351,220.928,525.029,221.365,524.911Zm12.687,1.467c-2.082.1-3.777-.989-5.516-1.566-1.775-.593-3.369-1.415-5.063-2.1,2.017,1.553,4.653,2.484,7.031,3.676.13.75-.834.591-1.507.607-1.944.051-4.32-.218-6.342-.128,3.047,1.022,7.533.367,11.1.716-.444.695-1.507.485-2.49.537-1.669.089-3.421.584-5.129.7a10.853,10.853,0,0,0-4.9,1.148c3.668-1.045,8.651-.786,12.75-1.4-.275,1.409-1.993,1.7-3.162,2.122-2.516.921-5.019,1.853-6.783,3.5A45.788,45.788,0,0,1,234.369,530a1.71,1.71,0,0,0,.377.828c-1.8,2.577-4.988,4.291-8.28,5.842a7.362,7.362,0,0,1-2.412.989c-.6-.062-.91-.949-1.365-1.127.217-.243.417-.562.149-.907-.316-.239-.6.072-.829.154a1.579,1.579,0,0,0-.457-.678c.66-.339.409-1.425-.455-.9-.986-2.174-.274-5.656-1.009-8,.858-.252.393-1.382-.3-.981-.268-.924.579-1.212.973-2.041.553-1.162.245-2.487.969-3.4.307-.39.788-.574,1.129-.911,1.867.911,4.206,2.312,6.353,3.149a9.5,9.5,0,0,1,4.085,2.927c.35.409.8.851.76,1.433" transform="translate(-207.091 -507.146)" fill="#fff" fill-rule="evenodd"/>
          <path id="Caminho_1564" data-name="Caminho 1564" d="M240.609,529.463c.332.139.631-.164.6-.607C240.915,528.7,240.625,529.1,240.609,529.463Zm1.2-2.27a6.421,6.421,0,0,1-.366,3.851,15.283,15.283,0,0,0-2.868.01c-.449.049-1.128.378-1.285-.146.75-.437,2.16-.214,2.867-.69-.828-.323-2.959.439-3.248-.592-.1-.363.263-.887.449-1.058.81-.739,3.028-.486,4.149-.695a6.208,6.208,0,0,0-4.528.016,1.864,1.864,0,0,1,.073-.753c1.479-.575,3.219-.147,4.757.057" transform="translate(-208.733 -507.91)" fill="#fff" fill-rule="evenodd"/>
          <path id="Caminho_1565" data-name="Caminho 1565" d="M232.388,527.349a4.068,4.068,0,0,1,1.283.22c-.23.392-1,.343-1.357.082-.01-.135.091-.16.073-.3" transform="translate(-208.295 -507.958)" fill="#fff" fill-rule="evenodd"/>
          <path id="Caminho_1566" data-name="Caminho 1566" d="M254.262,537.015l.527,0a.719.719,0,0,0,.147-.754C254.429,535.759,253.789,536.54,254.262,537.015Zm-2.189-.143c.1-.129.3-.152.377-.3a.578.578,0,0,0-.534-.676A.5.5,0,0,0,252.072,536.872Zm1.43-.91c.369-.02.574-.5.3-.907C252.777,534.643,252.817,536,253.5,535.963Zm-2.643-.443a.474.474,0,1,0-.155-.906C250.429,534.829,250.542,535.453,250.859,535.52Zm4.224-.62.153.075c.635.151.731-.586.448-.908C255.053,533.914,254.877,534.452,255.083,534.9Zm-7.247-.957a1.388,1.388,0,0,0,.6.074.643.643,0,0,0,.149-.755A.507.507,0,0,0,247.835,533.943Zm6.415-.474a.477.477,0,1,0,.071-.907A.585.585,0,0,0,254.25,533.469Zm-2.492-.218a.547.547,0,0,0,.9-.607A.554.554,0,0,0,251.758,533.251Zm1.88-1.819c-.208-.744-1.513-.017-.752.606C253.493,532.135,253.726,531.759,253.638,531.433Zm-2.264-.294C249.427,531.428,252.186,532.843,251.373,531.139Zm5.662.434a.664.664,0,0,0,.6.147c.155-.121.173-.379.149-.679C257.415,530.83,256.893,531.032,257.035,531.573Zm-2.342-.6c.177.023.282.118.527.074a.541.541,0,0,1,.151-.227C255.485,529.913,254.254,530.224,254.693,530.976Zm-2.945-.215a.735.735,0,0,0,.755.073c.065-.188.146-.587,0-.754C252.048,529.831,251.6,530.169,251.748,530.761ZM253.1,529.4a6.827,6.827,0,0,0,1.433.449C254.721,529.093,253.295,528.823,253.1,529.4Zm4.072-.468c.633-.028.37-1.235-.227-.829C256.561,528.328,256.8,528.864,257.175,528.929Zm-.232-2.113c.057.016.087.064.073.152.383-.024.923.114.907-.306C257.856,526.317,257.012,526.491,256.944,526.816Zm-.985-.976c-.191.844.959.877.753,0A.47.47,0,0,0,255.959,525.84Zm1.357-.233a.759.759,0,0,0,.83-.077C258.372,524.673,257.015,524.75,257.316,525.607Zm-2.566-.142a.435.435,0,1,0,.6-.6C254.89,524.8,254.689,525.006,254.75,525.465Zm-6.041-.279c.339-.04.52-.237.45-.679C248.628,523.91,248.031,524.979,248.709,525.186Zm7.473-.328C257.754,524.444,255.252,523.433,256.182,524.857Zm.524-.907c.5.085.715-.306.527-.681C256.733,522.89,256.286,523.633,256.705,523.95Zm-2.34-.521c.064.22.188-.1.377,0-.047.326.132.422.228.6C256.637,523.856,254.443,522.284,254.365,523.429Zm-8.825,2.293c1.289-.561,2.28-1.589,3.542-2.275s2.68-1.082,3.917-1.9h-.228A16.271,16.271,0,0,0,245.54,525.723Zm10.1-4.564a1.022,1.022,0,0,0-.155-.751C254.3,520.213,254.963,522.025,255.638,521.158Zm.956,14.341c-.72-.106-.827,1.216.005,1.054a12.5,12.5,0,0,1-2.031,1.971c-.279-.149-.642-.211-.906-.373-.16-.2.186-.8-.383-.905-.4-.075-.535.141-.676.6-2.656-.665-4.376-2.4-6.053-4.127-1.054-1.09-2.349-2.054-2.956-3.463a2.426,2.426,0,0,1,1.357.222c2.9.942,4.683,3.213,7.865,3.9-.245-.531-.922-.645-1.36-.824-2.52-1.039-4.384-2.894-6.958-3.978.151-.567.851-.6,1.355-.608,1.98-.044,4.75.954,6.569.127-2.935.122-5.536-.666-8.457-.8.266-1.093,2.445-.642,3.7-.692,1.482-.063,3.113-.594,4.9-.471a14.109,14.109,0,0,0,3.623-.088c-.324-.415-.967-.223-1.435-.221-1.031,0-2.086-.141-3.021-.141-1.706,0-3.323.424-4.829.394a29.006,29.006,0,0,0,6.931-3.494c-3.2.905-5.761,3.5-10.1,3.278.541-2.3,2.43-3.551,4.209-4.619,2.3-1.38,5.195-1.988,7.99-2.745.33.337.309.739.459,1.13.659,1.744,2.057,3.717,2.661,5.651a6.127,6.127,0,0,1,.232,1.206,12.531,12.531,0,0,1-2.459,8.917c-.068-.106.125-.865-.232-.9" transform="translate(-209.374 -507.207)" fill="#fff" fill-rule="evenodd"/>
          <path id="Caminho_1577" data-name="Caminho 1577" d="M267.638,509.233c-.316-2.411-3.065-4.41-5.275-2.345.589.786,1.537.913,1.591,2.1.088,1.94-2.631,2.964-4.354,3.1-6.643.5-10.73-3.057-15.993-3.435-3.774-.269-5.717,1.122-6.954,3.35a5.525,5.525,0,0,0-5.192-3.518c-4.97-.293-8.92,2.675-13.732,3.351-3.123.438-8.454.017-8.291-3.016.065-1.215,1.1-1.26,1.59-2.178-3.279-2.269-5.976,1.142-5.108,4.943.761,3.324,4.281,6.349,7.453,8.207a15.885,15.885,0,0,0,5.695,1.925c1.359.246,2.735.591,3.769.671,6.428.487,12.027-2.171,13.9-6.365a9.819,9.819,0,0,0,3.769,4.437,18.1,18.1,0,0,0,9.882,2.094c1.25-.1,2.58-.369,3.851-.586a19.8,19.8,0,0,0,7.955-3.433c2.326-1.648,6-5.04,5.446-9.3" transform="translate(-205.754 -505.907)" fill="#31375b" fill-rule="evenodd"/>
          <path id="Caminho_1582" data-name="Caminho 1582" d="M234.355,510.207c-1.27,1.019-3.182,1.4-4.774,2.1a12.613,12.613,0,0,0,4.857-1.509c-2.525,2.528-6.8,3.3-10.216,4.943,1.387-1.379,3.335-2.194,5.025-3.267a15.006,15.006,0,0,0-8.124,6.2c1.338-5,7.793-5.607,11.306-8.71a14.645,14.645,0,0,1,1.925.251" transform="translate(-207.224 -506.294)" fill="#fff" fill-rule="evenodd"/>
          <path id="Caminho_1583" data-name="Caminho 1583" d="M232.167,510.047a13.148,13.148,0,0,1-5.026,2.6c1.409-1.13,2.3-2.785,5.026-2.6" transform="translate(-207.8 -506.301)" fill="#fff" fill-rule="evenodd"/>
          <path id="Caminho_1584" data-name="Caminho 1584" d="M247.237,510.14c2.678-.137,3.572,1.507,5.023,2.6-1.7-.5-3.86-1.272-5.023-2.6" transform="translate(-209.722 -506.311)" fill="#fff" fill-rule="evenodd"/>
          <path id="Caminho_1585" data-name="Caminho 1585" d="M206.769,510.512c.8.648,2.108.795,3.017,1.338a3.353,3.353,0,0,1-3.017-.752v-.586" transform="translate(-205.851 -506.347)" fill="#fff" fill-rule="evenodd"/>
          <path id="Caminho_1586" data-name="Caminho 1586" d="M272.931,510.789c-.272,1.209-1.636,1.326-3.1,1.339.765-.658,2.335-.96,3.1-1.339" transform="translate(-211.883 -506.374)" fill="#fff" fill-rule="evenodd"/>
          <path id="Caminho_1587" data-name="Caminho 1587" d="M227.867,510.789c.215,0,.1.063.084.169-2.054,2.021-4.589,3.561-6.366,5.86a10.189,10.189,0,0,1,6.282-6.029" transform="translate(-207.268 -506.374)" fill="#fff" fill-rule="evenodd"/>
          <path id="Caminho_1588" data-name="Caminho 1588" d="M243.161,510.976h.252c1.927,2.294,5.559,3.427,8.625,4.857,2.494,1.162,5.361,2.351,5.611,5.693-.525,0-.9.164-1.422.168a4.4,4.4,0,0,0-2.344-3.182c.418.919,1.969,1.433,1.84,3.182-.2.026-.316.132-.586.082-.9-2.264-2.474-3.335-4.606-4.437a19.308,19.308,0,0,1-5.358-3.685c2.329,1.186,4.941,2.816,7.535,4.019-1.891-1.593-4.307-2.682-6.531-4.019a7.017,7.017,0,0,1-3.016-2.679" transform="translate(-209.332 -506.392)" fill="#fff" fill-rule="evenodd"/>
          <path id="Caminho_1589" data-name="Caminho 1589" d="M236.889,511.437c.222.087.281.332.5.42-.926,2.646-3,4.146-5.527,5.193,1.83-1.716,3.927-3.164,5.024-5.612" transform="translate(-208.252 -506.436)" fill="#fff" fill-rule="evenodd"/>
          <path id="Caminho_1590" data-name="Caminho 1590" d="M206.956,512.179a5.119,5.119,0,0,0,2.6,1.338c.038-.373-.938-.457-1.089-.921,1.936-.12,3.161.467,4.773.67-.826.4-2.477-.022-3.265.419a3.411,3.411,0,0,0,1.255.167,6.973,6.973,0,0,1-3.183.5,9.806,9.806,0,0,1-1.087-2.176" transform="translate(-205.869 -506.507)" fill="#fff" fill-rule="evenodd"/>
          <path id="Caminho_1591" data-name="Caminho 1591" d="M255.017,512.27a3.938,3.938,0,0,1,2.261,1.09c2.164,2.084,3.891,4.922,7.033,6.029-.9.8-2.082-.23-2.932-.5.261.66,1.061.782,1.675,1.088-2.11,2.135-4.407-1.412-4.689-3.6a13.918,13.918,0,0,0,2.51,2.345,50.823,50.823,0,0,0-5.858-6.449" transform="translate(-210.466 -506.515)" fill="#fff" fill-rule="evenodd"/>
          <path id="Caminho_1592" data-name="Caminho 1592" d="M272.231,512.364a4.61,4.61,0,0,1-1.089,2.176,10.081,10.081,0,0,1-3.014-.418c.287-.215.962-.042,1.172-.334-.925-.248-2.244-.1-3.267-.252a12.773,12.773,0,0,1,4.859-.752c-.281.387-.91.429-1.173.836a3.9,3.9,0,0,0,2.512-1.254" transform="translate(-211.52 -506.524)" fill="#fff" fill-rule="evenodd"/>
          <path id="Caminho_1593" data-name="Caminho 1593" d="M220.58,513.011c-2.232,2.122-4.5,4.212-8.372,4.69,1.132-.515,2.4-.891,3.1-1.843a29.674,29.674,0,0,1-3.351,1.425c.748-.619,1.189-1.611,2.177-2.094,1.339-.657,3.112-.715,4.1-1.843-.263.993-1.738,1.5-2.512,2.259a5.136,5.136,0,0,0,3.267-2.345,13.885,13.885,0,0,0,1.59-.25" transform="translate(-206.347 -506.586)" fill="#fff" fill-rule="evenodd"/>
          <path id="Caminho_1594" data-name="Caminho 1594" d="M216.486,513.659a12.787,12.787,0,0,1-6.2,1.34,18.157,18.157,0,0,1,6.2-1.34" transform="translate(-206.188 -506.648)" fill="#fff" fill-rule="evenodd"/>
          <path id="Caminho_1595" data-name="Caminho 1595" d="M262.885,513.751c2.365.095,4.076.839,6.114,1.257a9.639,9.639,0,0,1-6.114-1.257" transform="translate(-211.219 -506.657)" fill="#fff" fill-rule="evenodd"/>
          <path id="Caminho_1596" data-name="Caminho 1596" d="M258.625,513.938a13.337,13.337,0,0,0,7.958,4.355,3.168,3.168,0,0,1-1.509,1,16.64,16.64,0,0,1-6.449-5.36" transform="translate(-210.811 -506.675)" fill="#fff" fill-rule="evenodd"/>
          <path id="Caminho_1597" data-name="Caminho 1597" d="M208.809,515.42a12.837,12.837,0,0,0,3.265.082c-.912.529-2.791,1.257-3.265-.082" transform="translate(-206.046 -506.817)" fill="#fff" fill-rule="evenodd"/>
          <path id="Caminho_1598" data-name="Caminho 1598" d="M270.782,515.511a2.765,2.765,0,0,1-.837.923,17.505,17.505,0,0,1-2.427-.671,14.475,14.475,0,0,0,3.265-.252" transform="translate(-211.662 -506.825)" fill="#fff" fill-rule="evenodd"/>
          <path id="Caminho_1599" data-name="Caminho 1599" d="M212.467,515.975c.116.405-.937,1.065-1.256,1.592a7.558,7.558,0,0,1-.921-.67c.717-.316,1.513-.553,2.177-.922" transform="translate(-206.188 -506.87)" fill="#fff" fill-rule="evenodd"/>
          <path id="Caminho_1600" data-name="Caminho 1600" d="M267.052,516.068a15.355,15.355,0,0,0,2.346.922,1.793,1.793,0,0,1-.921.668,12.748,12.748,0,0,1-1.424-1.59" transform="translate(-211.617 -506.879)" fill="#fff" fill-rule="evenodd"/>
          <path id="Caminho_1601" data-name="Caminho 1601" d="M243.254,516.437c1.915,2.107,4.976,3.064,6.532,5.527-2.343-1.339-5.194-2.9-6.532-5.527" transform="translate(-209.341 -506.914)" fill="#fff" fill-rule="evenodd"/>
          <path id="Caminho_1602" data-name="Caminho 1602" d="M237.964,516.716c-.24,1.451-2.606,3.662-4.019,4.353a22.786,22.786,0,0,1-3.1.756c2.225-1.852,5.259-2.892,7.118-5.109" transform="translate(-208.154 -506.941)" fill="#fff" fill-rule="evenodd"/>
          <path id="Caminho_1603" data-name="Caminho 1603" d="M241.125,516.9c2.007,2.069,4.871,3.281,7.2,5.024a8.663,8.663,0,0,1-7.2-5.024" transform="translate(-209.138 -506.958)" fill="#fff" fill-rule="evenodd"/>
          <path id="Caminho_1604" data-name="Caminho 1604" d="M219.945,520.42a7.136,7.136,0,0,1-.084,1.675,5.669,5.669,0,0,1-1.424-.419c.4-.525,1.1-.738,1.508-1.256" transform="translate(-206.967 -507.295)" fill="#fff" fill-rule="evenodd"/>
          <path id="Caminho_1605" data-name="Caminho 1605" d="M259.74,520.6a8.053,8.053,0,0,1,1.587,1.255,9.633,9.633,0,0,1-1.422.42,8.816,8.816,0,0,0-.165-1.675" transform="translate(-210.918 -507.313)" fill="#fff" fill-rule="evenodd"/>
          <path id="Caminho_1606" data-name="Caminho 1606" d="M248.946,512.564a8.8,8.8,0,0,0-2.43-1.006,19.592,19.592,0,0,1-2.344-1.088,3.1,3.1,0,0,1,1.924-.336c.4.1.573.563.923.838,2.123,1.658,5.579,2.269,7.871,4.187a9.191,9.191,0,0,1,2.6,3.683,16.459,16.459,0,0,0-8.123-6.28c1.378,1.048,3.553,2.029,5.023,3.265-3.322-1.394-7.74-2.419-10.3-4.855a19.328,19.328,0,0,0,4.859,1.591" transform="translate(-209.421 -506.306)" fill="#fff" fill-rule="evenodd"/>
          <path id="Caminho_1607" data-name="Caminho 1607" d="M233.147,513.384a12.5,12.5,0,0,1-3.853,3.1c-2.462,1.257-5.058,2.2-5.862,5.108h-.754c-.021-1.751,1.2-2.264,1.927-3.266a3.99,3.99,0,0,0-2.345,3.182,7.238,7.238,0,0,1-1.508-.167c.564-4.291,4.723-5.215,8.29-6.782a30.222,30.222,0,0,0,3.352-1.676,20.574,20.574,0,0,0,2.846-2.094c-2.149,3.267-6.677,4.152-9.547,6.7a61.434,61.434,0,0,0,7.455-4.1" transform="translate(-207.189 -506.374)" fill="#fff" fill-rule="evenodd"/>
          <path id="Caminho_1608" data-name="Caminho 1608" d="M251.125,510.976c3.152.756,5.349,3.191,6.7,6.029-1.844-2.064-4.506-4.037-6.7-6.029" transform="translate(-210.094 -506.392)" fill="#fff" fill-rule="evenodd"/>
          <path id="Caminho_1609" data-name="Caminho 1609" d="M242.556,511.622c1.041,2.453,3.1,3.883,4.941,5.528a9.314,9.314,0,0,1-5.107-4.1c-.191-.387-.618-1.26.165-1.423" transform="translate(-209.231 -506.453)" fill="#fff" fill-rule="evenodd"/>
          <path id="Caminho_1610" data-name="Caminho 1610" d="M218.074,518.526a11.138,11.138,0,0,0,2.512-2.345,5.809,5.809,0,0,1-3.012,4.436c-.534-.275-1.224-.4-1.593-.836.558-.308,1.34-.393,1.593-1.006-.745.1-2.037,1.286-2.933.5a19.474,19.474,0,0,0,4.186-2.847c1.585-1.6,2.613-3.665,5.026-4.439h.082c-.4.643-1.246,1.091-1.842,1.76-1.374,1.537-2.757,3.339-4.02,4.774" transform="translate(-206.604 -506.489)" fill="#fff" fill-rule="evenodd"/>
          <path id="Caminho_1611" data-name="Caminho 1611" d="M238.359,512.827c.51.465.378,1.573.419,2.511a10.244,10.244,0,0,1-2.932,2.679,14.254,14.254,0,0,0,2.513-5.191" transform="translate(-208.633 -506.568)" fill="#fff" fill-rule="evenodd"/>
          <path id="Caminho_1612" data-name="Caminho 1612" d="M241.1,513.011c.823,1.8,1.451,3.8,2.764,5.109-1.461-.8-3.844-2.265-2.764-5.109" transform="translate(-209.109 -506.586)" fill="#fff" fill-rule="evenodd"/>
          <path id="Caminho_1613" data-name="Caminho 1613" d="M263.809,515.968c.4.887,1.852,1.442,3.016,1.843-3.646-.29-6.1-2.5-8.292-4.525,2.273-.15,2.669,2.3,4.772,2.6-.5-.814-2.077-1.267-2.6-2.344,1.976,1.432,5.12,1.692,6.366,3.852a11.951,11.951,0,0,1-3.266-1.423" transform="translate(-210.803 -506.612)" fill="#fff" fill-rule="evenodd"/>
          <path id="Caminho_1614" data-name="Caminho 1614" d="M234.4,513.475c-2.117,2.8-5.849,4.7-8.038,7.7a2.117,2.117,0,0,0-.086.837c-.746.05-1.246-.147-2.009-.082.877-2.616,3.693-3.531,5.945-4.941a28.483,28.483,0,0,0,4.187-3.517" transform="translate(-207.525 -506.631)" fill="#fff" fill-rule="evenodd"/>
          <path id="Caminho_1615" data-name="Caminho 1615" d="M244.365,513.659a30.5,30.5,0,0,0,5.278,4.021c1.945,1.045,4.184,2.227,4.94,4.439-.752-.055-1.321.074-2.01.083a1.827,1.827,0,0,0,0-.669,6.915,6.915,0,0,0-1.423-1.926,62.365,62.365,0,0,1-6.784-5.947" transform="translate(-209.447 -506.648)" fill="#fff" fill-rule="evenodd"/>
          <path id="Caminho_1616" data-name="Caminho 1616" d="M220.467,513.751a17.81,17.81,0,0,1-4.27,4.188c-1.327.862-2.517,1.684-3.685.336a14.515,14.515,0,0,0,7.956-4.524" transform="translate(-206.4 -506.657)" fill="#fff" fill-rule="evenodd"/>
          <path id="Caminho_1617" data-name="Caminho 1617" d="M236.261,514.495c-1.59,3.126-6.366,3.794-7.7,7.452a7.254,7.254,0,0,0-1.508.166,3.016,3.016,0,0,1,.838-1.842c2.237-2.469,6.6-2.848,8.372-5.776" transform="translate(-207.791 -506.728)" fill="#fff" fill-rule="evenodd"/>
          <path id="Caminho_1618" data-name="Caminho 1618" d="M242.6,514.77c.572.213.689.719,1.091,1.09,2.441,2.262,7.163,2.711,8.205,6.365-.55.02-.91-.148-1.5-.085-1.4-3.652-5.779-4.326-7.791-7.37" transform="translate(-209.279 -506.754)" fill="#fff" fill-rule="evenodd"/>
          <path id="Caminho_1619" data-name="Caminho 1619" d="M236,516.252c-1.148,2.567-4.159,3.993-6.45,5.695.446-1.347,1.806-2.2,3.014-3.013A19.828,19.828,0,0,0,236,516.252" transform="translate(-208.03 -506.896)" fill="#fff" fill-rule="evenodd"/>
        </g>
        <path id="Caminho_1620" data-name="Caminho 1620" d="M319.916,495.058H187.439v-1.372H319.916v1.372" transform="translate(-187.439 -493.686)" fill="#31375b" fill-rule="evenodd"/>
      </g>
    </g>
  </g>
</svg>
