<svg xmlns="http://www.w3.org/2000/svg" width="243" height="59" viewBox="0 0 243 59">
  <g id="Grupo_479" data-name="Grupo 479" transform="translate(-1020.915 -140.366)">
    <text id="BarberSys" transform="translate(1091.915 184.366)" fill="#0d1657" font-size="49" font-family="BebasNeue-Regular, Bebas Neue"><tspan x="0" y="0" fill="#000">Barber</tspan><tspan y="0" fill="#0d1657">Sys</tspan></text>
    <circle id="Elipse_1" data-name="Elipse 1" cx="27.5" cy="27.5" r="27.5" transform="translate(1020.915 143.366)" fill="#d5d3d3"/>
    <g id="Grupo_171" data-name="Grupo 171" transform="translate(1028.421 159.294)">
      <path id="path288" d="M192.478-558.924c0,1.836-.731,6.1-2.9,6.8a12.637,12.637,0,0,1-3.529.4c-2.572,0-4.915-.437-5.571-1.039-1.2-1.1-1.908-5.438-1.605-7.144.271-1.526.82-2.195,4.949-2.195C188.916-562.1,192.478-560.8,192.478-558.924Zm-2.69,7.5c-.193.064-.366.106-.555.156s-.386.078-.58.11l-.585.079-.592.054a22.442,22.442,0,0,1-2.408.036,19.05,19.05,0,0,1-2.4-.248,7.255,7.255,0,0,1-2.253-.693,2.332,2.332,0,0,1-.783-.854,6.683,6.683,0,0,1-.443-.984,13.131,13.131,0,0,1-.514-1.888,14.508,14.508,0,0,1-.281-2.9,6.348,6.348,0,0,1,.056-.814l.046-.285-.029.286a7.514,7.514,0,0,0-.013.813,15.736,15.736,0,0,0,.39,2.866,12.87,12.87,0,0,0,.554,1.844,3.416,3.416,0,0,0,1.154,1.691,7.024,7.024,0,0,0,2.164.639,18.926,18.926,0,0,0,2.363.225,22.14,22.14,0,0,0,2.376-.015l.582-.048.573-.072.554-.1c.18-.046.377-.093.54-.146a3.284,3.284,0,0,0,1.57-1.315,7.713,7.713,0,0,0,.837-1.718,13.889,13.889,0,0,0,.651-2.814c.046-.348.067-.622.078-.81s.015-.288.015-.288,0,.1,0,.288,0,.465-.036.815-.08.775-.159,1.26a12.121,12.121,0,0,1-.39,1.6,7.9,7.9,0,0,1-.814,1.785A3.4,3.4,0,0,1,189.787-551.428Zm19.2-11.4c-.938-.006-1.955,0-3.029.01a19.93,19.93,0,0,0-3.328.327,14.47,14.47,0,0,0-3.383,1.119c-.559.251-1.121.526-1.723.745a5.674,5.674,0,0,1-1.907.364l-.481-.026c-.158-.014-.329-.049-.492-.073a6.407,6.407,0,0,1-.935-.264c-.6-.219-1.164-.494-1.723-.745a14.486,14.486,0,0,0-3.382-1.119,20,20,0,0,0-3.328-.326c-1.076-.012-2.091-.016-3.03-.01-1.876.014-3.44.036-4.535.083s-1.719.083-1.719.083.621-.083,1.714-.171,2.656-.2,4.535-.25c.939-.029,1.958-.05,3.033-.065a17.9,17.9,0,0,1,3.4.271,14.894,14.894,0,0,1,3.48,1.119c.567.249,1.125.515,1.7.718a6,6,0,0,0,.868.239c.146.019.283.051.436.063l.457.023a5.222,5.222,0,0,0,1.761-.324c.572-.2,1.131-.469,1.7-.718a14.9,14.9,0,0,1,3.481-1.119,17.926,17.926,0,0,1,3.4-.271c1.077.015,2.095.036,3.034.065,1.879.056,3.442.167,4.535.25s1.714.17,1.714.17-.625-.043-1.719-.083S210.866-562.814,208.99-562.829Zm1.783,10.064c-.656.6-3,1.039-5.571,1.039a12.638,12.638,0,0,1-3.529-.4c-2.173-.7-2.9-4.962-2.9-6.8,0-1.872,3.562-3.179,8.661-3.179,4.128,0,4.678.669,4.949,2.195C212.679-558.2,211.972-553.866,210.772-552.765Zm.7.226a1.246,1.246,0,0,1-.179.228,1.32,1.32,0,0,1-.218.214l-.229.163a4.97,4.97,0,0,1-1.108.438,10.605,10.605,0,0,1-1.162.255,19.345,19.345,0,0,1-2.4.248,22.442,22.442,0,0,1-2.414-.035,10,10,0,0,1-2.328-.4l-.258-.111-.128-.055c-.042-.022-.084-.053-.125-.079a2.437,2.437,0,0,1-.463-.35l-.205-.191-.175-.212c-.057-.071-.118-.139-.17-.212l-.146-.223a7.843,7.843,0,0,1-.821-1.787,12.131,12.131,0,0,1-.393-1.607c-.079-.485-.135-.91-.16-1.262s-.034-.628-.036-.817,0-.289,0-.289.005.1.015.289.033.463.079.811a13.834,13.834,0,0,0,.656,2.819,7.66,7.66,0,0,0,.844,1.719l.145.21c.051.068.111.13.166.2l.17.2.2.173a2.727,2.727,0,0,0,.912.539,9.95,9.95,0,0,0,2.245.36,22.721,22.721,0,0,0,2.381.015,19.138,19.138,0,0,0,2.369-.224,10.366,10.366,0,0,0,1.135-.239,4.971,4.971,0,0,0,1.027-.387,3.367,3.367,0,0,0,1.176-1.694,12.727,12.727,0,0,0,.558-1.847,15.674,15.674,0,0,0,.393-2.871,7.418,7.418,0,0,0-.013-.814l-.029-.287s.016.1.046.285a6.453,6.453,0,0,1,.056.816,14.468,14.468,0,0,1-.285,2.906,12.937,12.937,0,0,1-.519,1.89,6.717,6.717,0,0,1-.448.985C211.585-552.7,211.529-552.618,211.477-552.538Zm-5.363-11.036a16.659,16.659,0,0,0-7.407,1.537,7.478,7.478,0,0,1-3.085.831,7.48,7.48,0,0,1-3.085-.831,16.658,16.658,0,0,0-7.407-1.537c-6.232,0-9.432.3-9.464.306l-.273.027v2.948l.2.072c.836.3,1.372,2.451,1.8,4.178.119.478.232.929.348,1.34l.032.112c.573,2.029,1.223,4.327,7.4,4.327s7.177-1.22,8.238-4.451c.84-2.558,1.561-3.8,2.2-3.8s1.364,1.243,2.2,3.8c1.061,3.23,2.046,4.451,8.237,4.451s6.831-2.3,7.4-4.327l.032-.112c.117-.411.229-.862.348-1.34.431-1.727.968-3.876,1.8-4.178l.2-.072v-2.948l-.273-.027c-.032,0-3.231-.306-9.464-.306" transform="translate(-175.394 563.575)" fill="#3f3f3f"/>
      <path id="path350" d="M218.943-504.994c-4.084,0-4.626-3.592-7-3.592a2.563,2.563,0,0,0-1.939.719,2.564,2.564,0,0,0-1.939-.719c-2.377,0-2.92,3.592-7,3.592a8.749,8.749,0,0,1-5.359-2.285c0,2.725,2.7,6.123,7.71,6.123,3.641,0,5.669-.857,6.591-2.2.922,1.343,2.95,2.2,6.591,2.2,5.014,0,7.71-3.4,7.71-6.123a8.747,8.747,0,0,1-5.358,2.285" transform="translate(-189.77 524.641)" fill="#3f3f3f"/>
    </g>
  </g>
</svg>
