<svg xmlns="http://www.w3.org/2000/svg" width="46.829" height="27.184" viewBox="0 0 46.829 27.184">
  <g id="Grupo_172" data-name="Grupo 172" transform="translate(72.933 -411.373)">
    <path id="path288" d="M195.168-558.192c0,2.125-.846,7.056-3.362,7.869a14.631,14.631,0,0,1-4.085.464c-2.977,0-5.689-.506-6.449-1.2-1.389-1.275-2.208-6.295-1.858-8.269.313-1.766.949-2.541,5.728-2.541C191.046-561.872,195.168-560.359,195.168-558.192Zm-3.114,8.677c-.223.074-.424.122-.643.181-.222.042-.447.09-.672.128l-.677.092-.686.062a26.01,26.01,0,0,1-2.788.042,22.078,22.078,0,0,1-2.775-.288,8.4,8.4,0,0,1-2.608-.8,2.7,2.7,0,0,1-.906-.988,7.736,7.736,0,0,1-.513-1.14,15.205,15.205,0,0,1-.595-2.185,16.8,16.8,0,0,1-.326-3.357,7.362,7.362,0,0,1,.064-.943l.053-.33-.034.332a8.694,8.694,0,0,0-.015.94,18.214,18.214,0,0,0,.451,3.317,14.9,14.9,0,0,0,.641,2.134,3.955,3.955,0,0,0,1.336,1.957,8.133,8.133,0,0,0,2.505.74,21.9,21.9,0,0,0,2.736.26,25.616,25.616,0,0,0,2.75-.017l.674-.056.663-.084.641-.116c.208-.053.437-.107.625-.169a3.8,3.8,0,0,0,1.818-1.522,8.931,8.931,0,0,0,.969-1.989,16.078,16.078,0,0,0,.754-3.258c.053-.4.078-.72.091-.937s.018-.334.018-.334,0,.116,0,.334,0,.538-.042.943-.093.9-.184,1.458a14.018,14.018,0,0,1-.451,1.856,9.137,9.137,0,0,1-.943,2.066A3.937,3.937,0,0,1,192.054-549.515Zm22.227-13.2c-1.086-.007-2.262,0-3.507.012a23.07,23.07,0,0,0-3.853.378,16.747,16.747,0,0,0-3.915,1.3c-.648.291-1.3.609-1.995.862a6.568,6.568,0,0,1-2.207.422l-.556-.031c-.183-.016-.38-.056-.569-.085a7.436,7.436,0,0,1-1.082-.306c-.7-.254-1.347-.572-1.994-.862a16.764,16.764,0,0,0-3.915-1.3,23.139,23.139,0,0,0-3.852-.377c-1.246-.014-2.421-.019-3.507-.012-2.172.017-3.982.042-5.249.1s-1.99.1-1.99.1.719-.1,1.984-.2,3.074-.226,5.249-.289c1.087-.034,2.267-.058,3.511-.076a20.712,20.712,0,0,1,3.94.314,17.239,17.239,0,0,1,4.028,1.3c.656.288,1.3.6,1.965.831a6.95,6.95,0,0,0,1,.276c.169.022.328.059.5.073l.529.027a6.048,6.048,0,0,0,2.038-.375c.662-.234,1.309-.542,1.965-.831a17.25,17.25,0,0,1,4.029-1.3,20.742,20.742,0,0,1,3.938-.313c1.246.018,2.425.042,3.512.075,2.175.064,3.985.193,5.249.289s1.984.2,1.984.2-.723-.05-1.99-.1S216.453-562.695,214.282-562.711Zm2.063,11.649c-.76.7-3.472,1.2-6.449,1.2a14.632,14.632,0,0,1-4.085-.464c-2.515-.813-3.362-5.744-3.362-7.869,0-2.167,4.123-3.68,10.025-3.68,4.779,0,5.415.774,5.728,2.541C218.552-557.357,217.734-552.337,216.345-551.062Zm.816.262a1.448,1.448,0,0,1-.207.263,1.524,1.524,0,0,1-.252.248l-.265.189a5.755,5.755,0,0,1-1.283.506,12.3,12.3,0,0,1-1.345.3,22.386,22.386,0,0,1-2.781.286,25.946,25.946,0,0,1-2.794-.041,11.565,11.565,0,0,1-2.7-.463l-.3-.129-.149-.064c-.049-.026-.1-.061-.145-.091a2.82,2.82,0,0,1-.536-.405l-.237-.221-.2-.246c-.066-.082-.137-.16-.2-.245l-.169-.258a9.075,9.075,0,0,1-.951-2.068,14.041,14.041,0,0,1-.455-1.86c-.091-.562-.156-1.053-.186-1.461s-.04-.727-.042-.945,0-.335,0-.335.006.116.018.334.038.536.091.939a16.014,16.014,0,0,0,.76,3.263,8.867,8.867,0,0,0,.977,1.99l.168.243c.059.079.128.15.192.227l.2.227.226.2a3.157,3.157,0,0,0,1.056.624,11.519,11.519,0,0,0,2.6.416,26.292,26.292,0,0,0,2.756.018,22.152,22.152,0,0,0,2.742-.259,11.979,11.979,0,0,0,1.314-.277,5.75,5.75,0,0,0,1.188-.448,3.9,3.9,0,0,0,1.362-1.961,14.725,14.725,0,0,0,.646-2.138,18.144,18.144,0,0,0,.455-3.324,8.578,8.578,0,0,0-.015-.942l-.034-.332s.018.115.053.33a7.465,7.465,0,0,1,.064.945,16.748,16.748,0,0,1-.33,3.364,14.975,14.975,0,0,1-.6,2.188,7.778,7.778,0,0,1-.518,1.141C217.286-550.982,217.221-550.892,217.161-550.8Zm-6.208-12.775a19.284,19.284,0,0,0-8.574,1.779,8.656,8.656,0,0,1-3.571.961,8.658,8.658,0,0,1-3.571-.961,19.282,19.282,0,0,0-8.574-1.779c-7.214,0-10.918.351-10.955.354l-.316.031v3.412l.231.083c.967.349,1.588,2.837,2.088,4.836.138.553.269,1.075.4,1.551l.037.129c.663,2.348,1.416,5.009,8.57,5.009s8.307-1.413,9.535-5.152c.972-2.961,1.806-4.4,2.551-4.4s1.579,1.439,2.551,4.4c1.228,3.739,2.368,5.152,9.535,5.152s7.907-2.661,8.57-5.009l.036-.129c.135-.476.265-1,.4-1.551.5-2,1.12-4.487,2.088-4.836l.231-.083v-3.412l-.316-.031c-.036,0-3.74-.354-10.955-.354" transform="translate(-248.327 974.948)" fill="#3f3f3f"/>
    <path id="path350" d="M222.6-504.429c-4.727,0-5.355-4.158-8.107-4.158a2.966,2.966,0,0,0-2.244.832,2.967,2.967,0,0,0-2.245-.832c-2.752,0-3.38,4.158-8.107,4.158a10.127,10.127,0,0,1-6.2-2.645c0,3.154,3.121,7.088,8.925,7.088,4.215,0,6.562-.992,7.63-2.547,1.067,1.555,3.414,2.547,7.629,2.547,5.8,0,8.925-3.934,8.925-7.088a10.125,10.125,0,0,1-6.2,2.645" transform="translate(-261.769 938.543)" fill="#3f3f3f"/>
  </g>
</svg>
