<svg xmlns="http://www.w3.org/2000/svg" xmlns:xlink="http://www.w3.org/1999/xlink" width="68" height="68" viewBox="0 0 68 68">
  <defs>
    <clipPath id="clip-path">
      <path id="path564" d="M365.056-555.264a34,34,0,0,0,34,34h0a34,34,0,0,0,34-34h0a34,34,0,0,0-34-34h0a34,34,0,0,0-34,34"/>
    </clipPath>
    <clipPath id="clip-path-2">
      <path id="path600" d="M472.1-444.079h10.186v3.726H472.1Z" transform="translate(-472.1 444.079)"/>
    </clipPath>
  </defs>
  <g id="g562" transform="translate(-365.056 589.264)" clip-path="url(#clip-path)">
    <g id="g568" transform="translate(410.218 -538.841)">
      <path id="path570" d="M-16.889,0c1.37,1.319,2.361,2.145,2.856,3.741s5.119,24.036,5.119,24.036H-19.7S-23.665,11.227-23.17,7.154-16.889,0-16.889,0" transform="translate(23.213)" fill="#461943"/>
    </g>
    <g id="g572" transform="translate(374.591 -539.247)">
      <path id="path574" d="M-22.118,0c-2.832,2-3.328,2.077-4.154,3.332s-1.211,3.349-1.706,7.751-2.422,17.1-2.422,17.1h11.119S-17.795,7.394-17.9,5.468-22.118,0-22.118,0" transform="translate(30.4)" fill="#461943"/>
    </g>
    <g id="g576" transform="translate(382.072 -544.183)">
      <path id="path578" d="M-30.974,0a66.694,66.694,0,0,0-9.213,3.853c-2.1,1.211-2.434,1.927-2.379,2.642S-41,9.163-40.187,12.123s-.4,21-.4,21h8.367s-1.14-26.486-.58-28.182S-30.974,0-30.974,0" transform="translate(42.572)" fill="#76366f"/>
    </g>
    <g id="g580" transform="translate(405.345 -544.183)">
      <path id="path582" d="M0,0A66.675,66.675,0,0,1,9.213,3.853c2.1,1.211,2.434,1.927,2.38,2.642s-1.566,2.667-2.38,5.627.4,21,.4,21H1.244s1.14-26.486.58-28.182S0,0,0,0" fill="#76366f"/>
    </g>
    <g id="g584" transform="translate(391.636 -541.794)">
      <path id="path586" d="M-3.779,0S-5.195.932-5.195,4.969v25.76H9.944V5.879C9.944,1.813,8.723,0,8.723,0Z" transform="translate(5.195)" fill="#008a6a"/>
    </g>
    <g id="g588" transform="translate(391.52 -545.99)">
      <path id="path590" d="M0-14.236A13.82,13.82,0,0,0,3.933-9.447c2.7,2.037,4.141,2.035,4.141,2.035a13.13,13.13,0,0,0,5.161-3.412,12.743,12.743,0,0,0,3.329-5.594l-7.4-3.149-9.047,3.4Z" transform="translate(0 19.567)" fill="#60e9d3"/>
    </g>
    <g id="g592" transform="translate(393.051 -550.258)">
      <path id="path594" d="M-33.39-22.605v1.026A11.478,11.478,0,0,1-35.9-18.453a18.374,18.374,0,0,1-3.738,2.215,18.407,18.407,0,0,1-3.734-2.215,11.478,11.478,0,0,1-2.515-3.126v-1.026a5.577,5.577,0,0,0,1.114-2.017,15.3,15.3,0,0,0,.146-3.435c-.022-.828-.062-1.634-.093-2.2-.031-.5-.053-.815-.053-.815l5.135.2,5.139-.2s-.013.207-.035.546c-.035.625-.093,1.7-.119,2.77a14.037,14.037,0,0,0,.154,3.131,5.577,5.577,0,0,0,1.114,2.017" transform="translate(45.892 31.069)" fill="#ff7d5b"/>
    </g>
    <g id="g596" transform="translate(394.218 -549.711)">
      <g id="g610" transform="translate(0 0)">
        <g id="g608" opacity="0.54" clip-path="url(#clip-path-2)">
          <g id="g606" transform="translate(0 0)">
            <path id="path604" d="M-27.2,0c-.035.625-.093,1.7-.119,2.77a13.188,13.188,0,0,1-5.056.951A11.427,11.427,0,0,1-37.3,2.466c-.022-.828-.062-1.633-.093-2.2Z" transform="translate(37.389)" fill="#ff384a"/>
          </g>
        </g>
      </g>
    </g>
    <g id="g612" transform="translate(388.669 -547.994)">
      <path id="path614" d="M-14.678-11.173c-1.062,2.6-1.113,3.463-1.113,8.82V21.574h-3.232V1.1a17.455,17.455,0,0,1,1.815-8.441s-2.549.074-2.916,0,1.369-1.9,2.116-3.225,1.48-3.444,1.921-3.963a3.828,3.828,0,0,1,1.534-.825s.248,3.269-.125,4.183" transform="translate(20.174 15.356)" fill="#b972b3"/>
    </g>
    <g id="g616" transform="translate(404.253 -547.513)">
      <path id="path618" d="M-.618-10.263C.444-7.659.472-6.94.472-1.583V22.343H3.7V1.867A17.453,17.453,0,0,0,1.888-6.574s2.55.073,2.916,0S3.435-8.474,2.688-9.8,1.223-13.037.782-13.555A2.6,2.6,0,0,0-.8-14.105a14.562,14.562,0,0,0,.183,3.843" transform="translate(0.85 14.105)" fill="#b972b3"/>
    </g>
    <g id="g620" transform="translate(385.816 -563.932)">
      <path id="path622" d="M-13.407-6.7a2.51,2.51,0,0,1-2.51,2.51,2.51,2.51,0,0,1-2.51-2.51,2.51,2.51,0,0,1,2.51-2.51,2.51,2.51,0,0,1,2.51,2.51" transform="translate(18.427 9.213)" fill="#ff7d5b"/>
    </g>
    <g id="g624" transform="translate(387.294 -562.453)">
      <path id="path626" d="M-5.511-2.755A1.031,1.031,0,0,1-6.543-1.723,1.032,1.032,0,0,1-7.575-2.755,1.032,1.032,0,0,1-6.543-3.787,1.031,1.031,0,0,1-5.511-2.755" transform="translate(7.575 3.787)" fill="#ca3f3f"/>
    </g>
    <g id="g628" transform="translate(407.381 -563.932)">
      <path id="path630" d="M-13.406-6.7a2.51,2.51,0,0,1-2.51,2.51,2.51,2.51,0,0,1-2.51-2.51,2.51,2.51,0,0,1,2.51-2.51,2.51,2.51,0,0,1,2.51,2.51" transform="translate(18.425 9.213)" fill="#ff7d5b"/>
    </g>
    <g id="g632" transform="translate(408.859 -562.453)">
      <path id="path634" d="M-5.511-2.755A1.031,1.031,0,0,1-6.543-1.723,1.032,1.032,0,0,1-7.575-2.755,1.032,1.032,0,0,1-6.543-3.787,1.031,1.031,0,0,1-5.511-2.755" transform="translate(7.575 3.787)" fill="#ca3f3f"/>
    </g>
    <g id="g636" transform="translate(389.357 -579.168)">
      <path id="path638" d="M0-30.311c0,.212.464,8.976.825,12.02s2.167,7.325,9.183,7.325,9.131-4.9,9.6-8.409-.361-12.948-.516-14.651S17.23-41.66,8.77-41.66,0-33.354,0-30.311" transform="translate(0 41.66)" fill="#ff7d5b"/>
    </g>
    <g id="g640" transform="translate(384.484 -583.9)">
      <path id="path642" d="M-63.109-68.02s-.414.207-.982.515-.621.568-.929.59-2.422-1.154-3.505-1.154-2.118.2-3.439.154a15.838,15.838,0,0,0-4.043.255,8.427,8.427,0,0,0-2.888,1.29.827.827,0,0,0-.568-.546,3.045,3.045,0,0,1-.894-.485,15.675,15.675,0,0,1,.273-1.911,6.981,6.981,0,0,0-.009-2.03v-.013a13.557,13.557,0,0,0-.264-1.462s1.717.207,1.77-.7-1.185-1.413-.775-3.373,1.55-2.114,1.55-2.114.308,1.031.823,1.031-.049-.978.775-1.392,1.951.15,3.139-3.576c-.026.141-.052.652.78,1.149.977.59,1.6.519,2.995,1.4s.876,1.29,1.5,1.185.361-1.823.361-1.823.308-.291,1.238.432.462,1.185.722,2.219.876.876.876.876a13.442,13.442,0,0,1,0,1.546c-.053.669-.361.361,0,1.29s.793.344.793.344.031.533,0,2.285a10.178,10.178,0,0,0,.224,2.123,17.149,17.149,0,0,0,.48,1.9m-2.541,3.263c-.137.564-.969,2.369-1.563,2.475a15.52,15.52,0,0,0-2.127.405,11.167,11.167,0,0,1-2.259.7c-.674.027-1.131-.595-2.127-.753s-1.726-.11-1.968-.379a7.467,7.467,0,0,1-.912-1.158c-.273-.458-.515-1.211,0-1.532s.59-.89,1.211-1.048a18.971,18.971,0,0,1,3.659-.458,18.031,18.031,0,0,1,3.9.137c.942.273,2.316,1.048,2.184,1.612m5.6-13.475c-1.1-.929-2.185-1.858-1.255-1.7s1.286.568,1.753-.053,1.185-1.083-.26-2.99a17.145,17.145,0,0,0-3.043-3.1,1.729,1.729,0,0,0,.762-1.907c-.247-1.4-1.432-2.426-3.906-2.272a13.27,13.27,0,0,1-4.593-.409,3.814,3.814,0,0,0-2.528.616,12.249,12.249,0,0,1,.414-2.219c.308-.977-.828-1.92-2.167-.493s-2.479,1.629-4.179,2.559-1.431,2.012-1.308,2.528.224,1.083.224,1.083a2.875,2.875,0,0,0-2.118-.26,4.443,4.443,0,0,1-2.321.053c-.669-.053-.977.669-.462,1.55a2.73,2.73,0,0,0,1.546,1.131c-.978,0-1.77.722-1.89,2.633s.344,2.422-.224,3.919-1.136,1.083-1.136,1.806.26,1.083,1.084,1.753a4.842,4.842,0,0,1,1.1,1.141,2.181,2.181,0,0,1,2,0,2.077,2.077,0,0,1,1.136,1.669,5.106,5.106,0,0,1,.013,1.008A1.927,1.927,0,0,1-82.6-68.517s-.115,1.066-.268,2.563-.053,2.167.823,3.1,1.858.568,2.013,2.475,1.343,1.445,2.836,2.321,1.4,1.189,2.426,1.29,2.167-.361,4.386-.462,2.681.154,3.558-.106,1.03-.775,2.32-1.392a19.987,19.987,0,0,1,2.171-1.031c.511-.158-.211-1.136,1.286-2.995s1.242-2.422.775-3.25c-.436-.771-1.779-2.62-2.026-4.069a2.159,2.159,0,0,1-.035-.282c-.106-1.48.111-2.628.534-3.021.477-.443,1.888.281,1.888.281s.053.022,0-.7a2.429,2.429,0,0,0-.568-1.29,3.029,3.029,0,0,0,1.687-1.291c.378-.876-.154-.925-1.255-1.854" transform="translate(86.74 93.489)" fill="#b8544e"/>
    </g>
    <g id="g644" transform="translate(393.052 -562.76)">
      <path id="path646" d="M-4.1-3.164c0,.654-.343,1.185-.767,1.185s-.767-.53-.767-1.185.344-1.185.767-1.185.767.531.767,1.185" transform="translate(5.632 4.349)" fill="#410b0b"/>
    </g>
    <g id="g648" transform="translate(403.712 -562.76)">
      <path id="path650" d="M-4.1-3.164c0,.654-.344,1.185-.767,1.185s-.768-.53-.768-1.185.344-1.185.768-1.185.767.531.767,1.185" transform="translate(5.633 4.349)" fill="#410b0b"/>
    </g>
    <g id="g652" transform="translate(396.967 -562.522)">
      <path id="path654" d="M-8.089-9.843c.042.008.092.062.068.208a.79.79,0,0,1-.47.514,1.853,1.853,0,0,1-1.3.057,1.932,1.932,0,0,1-.841-.5,1.749,1.749,0,0,1-.486-1.145,1.51,1.51,0,0,1,.169-.756,1.453,1.453,0,0,1,.464-.51,1.4,1.4,0,0,1,.554-.227l.069-.011c.012,0,.007,0,.012,0l.012,0,.023.01c.015,0,.012-.021.02-.044-.013-.13-.023-.27-.026-.382A3.188,3.188,0,0,1-9.8-13.17c.04-.267.107-.358.173-.358s.129.089.194.339c.076.328.2.867.393,1.718l-.423-.084a.7.7,0,0,0-.215-.024h-.1l-.036.009a.809.809,0,0,0-.3.14.79.79,0,0,0-.331.7,1.207,1.207,0,0,0,.839,1.069,1.715,1.715,0,0,0,.933.089c.426-.1.458-.292.571-.269" transform="translate(11.118 13.528)" fill="#cb373f"/>
    </g>
    <g id="g656" transform="translate(395.844 -556.994)">
      <path id="path658" d="M-17.992-6.4a3.445,3.445,0,0,1-.224.286,4.248,4.248,0,0,1-2.9,1.4,3.19,3.19,0,0,1-2.624-1.066c-.1-.1-.189-.194-.282-.295-.727-.8-.872-1.8-.537-2.03,0,0,0,0,.009,0v0c.269-.185.674-.335,2.629-.572a13,13,0,0,1,4.2.1.163.163,0,0,1,.048.022c.374.207.33,1.251-.317,2.162" transform="translate(24.729 8.803)" fill="#670d1d"/>
    </g>
    <g id="g660" transform="translate(396.834 -554.956)">
      <path id="path662" d="M-14.748-1.727a4.248,4.248,0,0,1-2.9,1.4,3.191,3.191,0,0,1-2.624-1.066,3.445,3.445,0,0,1,2.519-.969,5.677,5.677,0,0,1,3,.634" transform="translate(20.271 2.373)" fill="#ff8989"/>
    </g>
    <g id="g664" transform="translate(396.024 -556.993)">
      <path id="path666" d="M-18.359-.63a1.136,1.136,0,0,1-.506.863,32.562,32.562,0,0,1-6,.163c-.2-.066-.308-.326-.366-.572v0c.269-.185.674-.335,2.629-.572a13.008,13.008,0,0,1,4.2.1.174.174,0,0,1,.048.022" transform="translate(25.233 0.866)" fill="#fff"/>
    </g>
    <g id="g668" transform="translate(391.636 -565.915)">
      <path id="path670" d="M-10.852-2.217c.077.729-.793.663-1.54.57s-1.8.583-2.123.467a.841.841,0,0,1-.35-1.037c.14-.41,1.632-.83,2.6-.83s1.343.167,1.412.83" transform="translate(14.916 3.047)" fill="#6c1f1b"/>
    </g>
    <g id="g672" transform="translate(402.275 -565.915)">
      <path id="path674" d="M-.013-2.217c-.077.729.794.663,1.54.57s1.8.583,2.123.467A.841.841,0,0,0,4-2.217c-.14-.41-1.632-.83-2.6-.83s-1.343.167-1.413.83" transform="translate(0.017 3.047)" fill="#6c1f1b"/>
    </g>
    <g id="g676" transform="translate(392.262 -579.534)">
      <path id="path678" d="M-4.424-.067c.022.046-.051.114-.27.295a2.96,2.96,0,0,0-.893,1.2,2.966,2.966,0,0,0-.139,1.487c.042.281.05.38,0,.4s-.129-.049-.238-.342A2.443,2.443,0,0,1-5.907,1.3,2.444,2.444,0,0,1-4.83.027c.278-.144.388-.133.406-.094" transform="translate(6.081 0.093)" fill="#78211d"/>
    </g>
    <g id="g680" transform="translate(394.219 -576.675)">
      <path id="path682" d="M-2.862-.216c.011.047-.009.093-.085.15s-.208.122-.4.258-.293.245-.373.3-.128.058-.169.033S-3.951.448-3.915.346a.991.991,0,0,1,.367-.432A1,1,0,0,1-3.021-.3c.108,0,.149.036.159.081" transform="translate(3.933 0.296)" fill="#78211d"/>
    </g>
    <g id="g684" transform="translate(397.513 -579.349)">
      <path id="path686" d="M-21.35-1.9c.011.02-.02.064-.128.138a1.775,1.775,0,0,1-.612.238,3.516,3.516,0,0,1-1.3.005,18.593,18.593,0,0,1-1.993-.542,5.626,5.626,0,0,0-1.972-.207,6.212,6.212,0,0,0-1.206.21c-.576.164-.758.241-.782.191-.018-.033.124-.189.706-.421a4.894,4.894,0,0,1,1.254-.294,5.5,5.5,0,0,1,2.09.191c.817.234,1.44.469,1.958.562a3.961,3.961,0,0,0,1.2.066c.58-.077.751-.193.779-.136" transform="translate(29.344 2.611)" fill="#78211d"/>
    </g>
    <g id="g688" transform="translate(405.447 -575.993)">
      <path id="path690" d="M-8.369-7.669c-.044.024-.125-.048-.319-.3A9.462,9.462,0,0,0-9.815-9.223a9.419,9.419,0,0,0-1.36-1c-.266-.17-.345-.243-.325-.289s.13-.046.436.073a5.041,5.041,0,0,1,1.479.965A5.044,5.044,0,0,1-8.484-8.1c.149.292.153.405.115.426" transform="translate(11.503 10.541)" fill="#78211d"/>
    </g>
    <g id="g692" transform="translate(397.358 -575.266)">
      <path id="path694" d="M-6.658-.48c-.009.05-.084.07-.288.088A3,3,0,0,0-8-.135a2.992,2.992,0,0,0-.873.641C-9.016.651-9.079.7-9.124.67s-.05-.107.059-.309a2.008,2.008,0,0,1,.922-.807A2,2,0,0,1-6.932-.634c.225.046.283.111.274.153" transform="translate(9.151 0.66)" fill="#78211d"/>
    </g>
    <g id="g696" transform="translate(388.403 -573.877)">
      <path id="path698" d="M-.142-8.3c-.039,0-.1-.161,0-.643a3.067,3.067,0,0,1,.39-.929A3.328,3.328,0,0,1,1.442-11a3.33,3.33,0,0,1,1.6-.4,3.072,3.072,0,0,1,.993.169c.459.176.562.311.543.344-.025.049-.168-.007-.61-.112a3.83,3.83,0,0,0-.923-.086,3.279,3.279,0,0,0-1.437.385A3.277,3.277,0,0,0,.513-9.695a3.814,3.814,0,0,0-.422.825c-.149.429-.178.58-.233.575" transform="translate(0.195 11.401)" fill="#78211d"/>
    </g>
    <g id="g700" transform="translate(391.117 -571.638)">
      <path id="path702" d="M-.123-4.525c-.042-.017-.067-.083-.023-.251a2.186,2.186,0,0,1,.465-.809,2.181,2.181,0,0,1,.728-.584c.16-.07.229-.056.252-.017s0,.1-.116.217-.322.283-.6.607-.409.56-.506.69-.151.166-.2.148" transform="translate(0.17 6.219)" fill="#78211d"/>
    </g>
    <g id="g704" transform="translate(387.912 -567.399)">
      <path id="path706" d="M0-7.179c-.009-.051.081-.1.35-.214a4.132,4.132,0,0,0,1.309-.844,4.126,4.126,0,0,0,.881-1.285c.122-.266.173-.355.223-.344s.076.115.005.423A3.057,3.057,0,0,1,1.9-7.991a3.061,3.061,0,0,1-1.476.83C.111-7.1.005-7.138,0-7.179" transform="translate(0.002 9.867)" fill="#78211d"/>
    </g>
    <g id="g708" transform="translate(386.756 -566.459)">
      <path id="path710" d="M0-1.129c.006-.048.05-.083.17-.107s.315-.036.623-.108.485-.158.6-.189.173-.023.2.017.019.1-.078.192a1.444,1.444,0,0,1-.645.312,1.441,1.441,0,0,1-.716.016C.026-1.033-.008-1.084,0-1.129" transform="translate(0.003 1.552)" fill="#78211d"/>
    </g>
    <g id="g712" transform="translate(406.565 -571.596)">
      <path id="path714" d="M-11.794-10.419c0,.04-.145.123-.649.13a3.631,3.631,0,0,1-1.023-.162,4,4,0,0,1-1.474-.832,4,4,0,0,1-.984-1.377,3.627,3.627,0,0,1-.27-1c-.046-.5.021-.66.061-.66s.075.156.178.618a4.757,4.757,0,0,0,.319.912,4.053,4.053,0,0,0,.926,1.252,4.051,4.051,0,0,0,1.343.787,4.807,4.807,0,0,0,.941.22c.47.053.628.057.633.111" transform="translate(16.21 14.32)" fill="#78211d"/>
    </g>
    <g id="g716" transform="translate(407.946 -567.713)">
      <path id="path718" d="M-.041-.038C0-.072.069-.046.243.065a3.848,3.848,0,0,0,.98.486A3.862,3.862,0,0,0,2.305.7c.206.006.281.026.292.075s-.046.108-.265.166A2.267,2.267,0,0,1,1.121.878,2.265,2.265,0,0,1,.084.248C-.064.076-.073-.008-.041-.038" transform="translate(0.056 0.052)" fill="#78211d"/>
    </g>
    <g id="g720" transform="translate(401.502 -574.643)">
      <path id="path722" d="M-5.035-8.286c-.052,0-.084-.09-.143-.356A4.278,4.278,0,0,0-5.7-9.994a4.284,4.284,0,0,0-.966-1.08c-.21-.174-.275-.244-.252-.29s.124-.045.386.089a2.974,2.974,0,0,1,1.124,1.1,2.981,2.981,0,0,1,.468,1.5c0,.293-.055.384-.1.383" transform="translate(6.921 11.388)" fill="#78211d"/>
    </g>
    <g id="g724" transform="translate(400.461 -572.184)">
      <path id="path726" d="M-.029-.069c.065-.085.26.03,1.076.5.833.439,1.034.542,1,.643C2.018,1.15,1.755,1.19.881.73.026.237-.08-.006-.029-.069" transform="translate(0.04 0.095)" fill="#78211d"/>
    </g>
    <g id="g728" transform="translate(395.652 -571.502)">
      <path id="path730" d="M-.084-2.42c-.069-.065-.046-.2.289-.557s.47-.387.538-.322.047.2-.289.557-.47.387-.538.322" transform="translate(0.115 3.326)" fill="#78211d"/>
    </g>
    <g id="g732" transform="translate(391.752 -582.669)">
      <path id="path734" d="M0-7.987C-.016-8.036.1-8.1.48-8.26a11.679,11.679,0,0,0,1.955-1,11.673,11.673,0,0,0,1.708-1.381c.3-.281.406-.362.446-.33s-.008.162-.267.493a7.066,7.066,0,0,1-1.7,1.5,7.074,7.074,0,0,1-2.065.942c-.408.1-.548.086-.559.044" transform="translate(0.004 10.977)" fill="#78211d"/>
    </g>
    <g id="g736" transform="translate(387.744 -576.284)">
      <path id="path738" d="M-.007-.612C-.03-.69.074-.847.637-.842c.562.044.651.209.622.284-.033.1-.158.094-.637.058C.142-.505.016-.509-.007-.612" transform="translate(0.01 0.842)" fill="#78211d"/>
    </g>
    <g id="g740" transform="translate(390.067 -557.07)">
      <path id="path742" d="M-3.348-10.026c-.032.029-.135-.007-.344-.235a3.611,3.611,0,0,1-.766-1.479A3.614,3.614,0,0,1-4.542-13.4c.066-.3.137-.386.179-.377s.064.11.062.4a5.583,5.583,0,0,0,.174,1.548A5.571,5.571,0,0,0-3.5-10.4c.149.251.187.345.149.379" transform="translate(4.601 13.78)" fill="#78211d"/>
    </g>
    <g id="g744" transform="translate(391.877 -554.699)">
      <path id="path746" d="M-1.026-1.769a.115.115,0,0,1-.141.026.44.44,0,0,1-.211-.276.442.442,0,0,1,0-.347.116.116,0,0,1,.128-.064c.1.017.133.087.194.3.081.209.1.283.027.358" transform="translate(1.411 2.431)" fill="#78211d"/>
    </g>
    <g id="g748" transform="translate(408.275 -557.455)">
      <path id="path750" d="M-.1-13.567c-.048-.013-.052-.139,0-.514A15.922,15.922,0,0,0,.093-16.1a16.08,16.08,0,0,0-.11-2.029c-.037-.376-.029-.5.019-.513s.119.1.219.471A7.719,7.719,0,0,1,.435-16.1a7.7,7.7,0,0,1-.3,2.068c-.115.37-.194.474-.237.462" transform="translate(0.137 18.646)" fill="#78211d"/>
    </g>
    <g id="g752" transform="translate(407.466 -554.145)">
      <path id="path754" d="M-.182-4.577c-.046-.015-.071-.067-.068-.194S-.214-5.1-.2-5.435s-.007-.538,0-.666.037-.177.084-.188.1.018.154.144a1.694,1.694,0,0,1,.1.724,1.7,1.7,0,0,1-.161.713c-.066.121-.121.146-.165.131" transform="translate(0.25 6.291)" fill="#78211d"/>
    </g>
    <g id="g756" transform="translate(393.397 -552.503)">
      <path id="path758" d="M-8.423-9.666c-.013.043-.144.057-.526-.042a4.589,4.589,0,0,1-.764-.285,3.858,3.858,0,0,1-1.1-.778,2.813,2.813,0,0,1-.682-1.183,2.1,2.1,0,0,1-.064-.84c.071-.408.187-.5.222-.49.053.017.024.142.02.506a2.506,2.506,0,0,0,.124.733,2.769,2.769,0,0,0,.626,1.035,4.116,4.116,0,0,0,1,.734c.294.157.527.259.7.338.35.154.459.223.445.271" transform="translate(11.577 13.285)" fill="#78211d"/>
    </g>
    <g id="g760" transform="translate(396.104 -550.095)">
      <path id="path762" d="M-5.284-5.011c-.046.019-.105-.028-.223-.19a5.117,5.117,0,0,0-.684-.813,5.125,5.125,0,0,0-.863-.62c-.17-.105-.222-.161-.206-.208s.092-.069.3-.014a2.467,2.467,0,0,1,1,.592,2.469,2.469,0,0,1,.666.952c.07.2.05.284.008.3" transform="translate(7.263 6.888)" fill="#78211d"/>
    </g>
    <g id="g764" transform="translate(403.573 -553.862)">
      <path id="path766" d="M-.017-13.731c-.032-.038.057-.159.367-.492a13.759,13.759,0,0,0,1.523-1.914,7.179,7.179,0,0,0,.708-1.317,1.7,1.7,0,0,0,.1-.854c-.08-.412-.206-.518-.157-.558.016-.015.061-.008.137.061a.966.966,0,0,1,.256.442,1.713,1.713,0,0,1-.035,1.007,6.272,6.272,0,0,1-.72,1.405,8.456,8.456,0,0,1-1.644,1.9c-.36.3-.5.351-.533.316" transform="translate(0.023 18.873)" fill="#78211d"/>
    </g>
    <g id="g768" transform="translate(402.748 -550.881)">
      <path id="path770" d="M-.223-3.483c-.045-.008-.084-.052-.084-.179a1.235,1.235,0,0,1,.225-.63A1.242,1.242,0,0,1,.4-4.755c.115-.052.171-.035.2,0s.019.094-.046.185-.19.22-.349.46-.219.41-.278.506-.1.126-.15.117" transform="translate(0.307 4.787)" fill="#78211d"/>
    </g>
    <g id="g772" transform="translate(400.625 -550.246)">
      <path id="path774" d="M-.748-3.106c-.043.017-.1.008-.153-.074a.9.9,0,0,1-.127-.5.9.9,0,0,1,.123-.5c.057-.081.109-.092.153-.075.1.039.084.152.067.578.02.425.039.539-.062.578" transform="translate(1.028 4.269)" fill="#78211d"/>
    </g>
  </g>
</svg>
